<svg xmlns="http://www.w3.org/2000/svg" width="75" height="74.896" viewBox="0 0 75 74.896"><path d="M74.965,23.735a2.382,2.382,0,0,0-1.123-2C38.113.542,38.619-1.037,36.3.364,9.222,17.2,1.686,20.951.6,22.262-.38,23.27.07,24.814.07,48.157,0,50.812,24.233,65.2,36.016,74.383a2.511,2.511,0,0,0,3.13-.09C74.172,49.464,75.024,50.463,74.965,48.157c0,0-.037-24.737,0-24.422ZM70.284,43.991l-12.1-7.362,12.1-8.416ZM53.816,33.967,39.858,25.473V6.531L68.337,23.866ZM37.517,45.3l-12.1-8.416,12.1-7.362,12.1,7.362ZM35.177,6.528V25.482c-5.427,3.367-10.014,6.179-13.89,8.532L6.7,23.866ZM16.9,36.667c-5.848,3.517-9.668,5.751-12.149,7.24V28.213Zm4.15,2.883,14.127,9.827V68.1L6.7,48.285ZM39.858,68.1V49.38l14.127-9.827,14.352,8.735Z" transform="translate(0.033 0.011)" fill="#fff"/></svg>