<svg xmlns="http://www.w3.org/2000/svg" width="75" height="73.143" viewBox="0 0 75 73.143"><path d="M37.5.3A37.5,37.5,0,0,0,25.641,73.375c1.875.353,2.563-.806,2.563-1.8,0-.891-.031-3.25-.047-6.375-10.431,2.262-12.631-5.031-12.631-5.031-1.706-4.328-4.172-5.484-4.172-5.484-3.4-2.325.263-2.278.263-2.278,3.766.263,5.744,3.862,5.744,3.862C20.7,62,26.138,60.344,28.281,59.384a8,8,0,0,1,2.375-5.016c-8.328-.937-17.081-4.163-17.081-18.531a14.467,14.467,0,0,1,3.859-10.063c-.422-.947-1.687-4.759.328-9.925,0,0,3.141-1.006,10.312,3.844a35.355,35.355,0,0,1,18.75,0c7.125-4.85,10.266-3.844,10.266-3.844a13.7,13.7,0,0,1,.375,9.925,14.527,14.527,0,0,1,3.844,10.063c0,14.406-8.766,17.578-17.109,18.5,1.313,1.125,2.531,3.425,2.531,6.938,0,5.019-.047,9.05-.047,10.269,0,.984.656,2.156,2.578,1.781A37.454,37.454,0,0,0,37.5.3" transform="translate(0 -0.297)" fill="#fff"/></svg>