<svg xmlns="http://www.w3.org/2000/svg" width="25" height="15.629" viewBox="0 0 25 15.629"><path d="M7.23,6.755a9.292,9.292,0,0,1,2,.2,4.508,4.508,0,0,1,1.548.636,2.932,2.932,0,0,1,1,1.167,4.159,4.159,0,0,1,.354,1.8,3.394,3.394,0,0,1-.528,1.938,3.819,3.819,0,0,1-1.565,1.271,3.672,3.672,0,0,1,2.107,1.428,4.277,4.277,0,0,1,.693,2.459,4.308,4.308,0,0,1-.427,2.011A3.856,3.856,0,0,1,11.2,21.07a5.311,5.311,0,0,1-1.74.8,7.623,7.623,0,0,1-1.99.265H0V6.762H7.23V6.754ZM17.652,19.427a2.719,2.719,0,0,0,1.974.67,2.724,2.724,0,0,0,1.594-.465,1.918,1.918,0,0,0,.813-.98h2.7a5.075,5.075,0,0,1-1.98,2.866,5.716,5.716,0,0,1-3.209.865,6.385,6.385,0,0,1-2.367-.417,5.156,5.156,0,0,1-1.792-1.188,5.314,5.314,0,0,1-1.122-1.844,6.829,6.829,0,0,1-.388-2.365,6.336,6.336,0,0,1,.42-2.324,5.409,5.409,0,0,1,2.976-3.109,5.588,5.588,0,0,1,2.313-.451,5.257,5.257,0,0,1,2.48.545,5,5,0,0,1,1.73,1.459,5.8,5.8,0,0,1,.98,2.1,8.408,8.408,0,0,1,.219,2.48H16.975a3.16,3.16,0,0,0,.74,2.152l-.083.031Zm-10.67.052a4.363,4.363,0,0,0,.944-.1,2.414,2.414,0,0,0,.8-.313,1.548,1.548,0,0,0,.542-.607,2.136,2.136,0,0,0,.2-1,2.022,2.022,0,0,0-.667-1.688,2.87,2.87,0,0,0-1.761-.5H3.376v4.22H6.982v-.031ZM21.16,13.592a2.293,2.293,0,0,0-1.727-.617,2.585,2.585,0,0,0-1.215.248,2.245,2.245,0,0,0-.771.615,2.164,2.164,0,0,0-.408.782,3.7,3.7,0,0,0-.141.74H21.86a2.977,2.977,0,0,0-.709-1.761v.01Zm-14.366-.64a2.428,2.428,0,0,0,1.485-.429,1.6,1.6,0,0,0,.577-1.394,1.962,1.962,0,0,0-.188-.882,1.523,1.523,0,0,0-.521-.534,2.214,2.214,0,0,0-.75-.268,4.612,4.612,0,0,0-.875-.077H3.366v3.585H6.794Zm9.48-5.166h6.219V9.3H16.274V7.783Z" transform="translate(0 -6.754)"/></svg>