<svg xmlns="http://www.w3.org/2000/svg" width="25" height="25" viewBox="0 0 25 25"><path d="M24.991,8.767c0-.015-.006-.031-.009-.046s-.011-.06-.019-.09-.011-.035-.017-.052-.017-.053-.027-.078-.015-.036-.024-.053-.023-.048-.037-.071l-.03-.05q-.021-.034-.046-.065l-.037-.046q-.026-.03-.053-.058c-.014-.015-.028-.029-.043-.042s-.04-.035-.06-.051-.032-.025-.048-.037l-.018-.013L13.1.4A1.074,1.074,0,0,0,11.9.4L.479,8.013l-.018.013-.048.037q-.032.024-.061.051c-.015.013-.029.027-.043.042s-.036.038-.053.058L.218,8.26q-.024.032-.045.065t-.031.05q-.02.035-.037.071C.1,8.463.089,8.481.082,8.5s-.019.052-.027.078-.012.034-.017.052-.013.06-.019.09S.012,8.75.01,8.765A1.035,1.035,0,0,0,0,8.907v7.618a1.042,1.042,0,0,0,.01.141c0,.015.006.031.008.046.006.03.011.06.019.09s.011.035.017.052.017.053.027.079.015.035.024.052.023.048.037.072l.031.049q.021.034.045.065c.012.016.025.032.037.046s.034.039.053.058.028.029.043.042.04.035.061.051l.048.037.018.013L11.9,25.034a1.074,1.074,0,0,0,1.192,0l11.426-7.618.018-.013.048-.037q.031-.025.06-.051c.015-.013.029-.027.043-.042s.036-.038.053-.058.025-.03.037-.046.031-.043.046-.065l.03-.049c.013-.024.025-.047.037-.072s.017-.034.024-.052.019-.053.027-.079.012-.034.017-.052.013-.06.019-.09l.009-.046a1.171,1.171,0,0,0,.01-.141V8.907a1.1,1.1,0,0,0-.01-.14ZM13.574,3.3l8.417,5.611-3.76,2.516L13.575,8.308V3.3Zm-2.149,0V8.308L6.769,11.424,3.008,8.908,11.426,3.3Zm-9.277,7.62,2.688,1.8-2.688,1.8v-3.6Zm9.277,11.216L3.009,16.523l3.76-2.515,4.657,3.115v5.011ZM12.5,15.257,8.7,12.715l3.8-2.542,3.8,2.542-3.8,2.542Zm1.074,6.877V17.123l4.657-3.115,3.76,2.515-8.417,5.611Zm9.277-7.62-2.688-1.8,2.688-1.8Z" transform="translate(0 -0.215)"/></svg>