<svg xmlns="http://www.w3.org/2000/svg" width="25" height="24.382" viewBox="0 0 25 24.382"><path d="M15.5,3a12.5,12.5,0,0,0-3.952,24.36c.625.109.858-.267.858-.595,0-.3-.016-1.28-.016-2.327-3.14.579-3.952-.765-4.2-1.469A4.553,4.553,0,0,0,6.907,21.2c-.437-.233-1.062-.812-.016-.827a2.5,2.5,0,0,1,1.923,1.281,2.671,2.671,0,0,0,3.64,1.031,2.629,2.629,0,0,1,.8-1.672c-2.782-.312-5.687-1.391-5.687-6.172a4.867,4.867,0,0,1,1.281-3.36A4.492,4.492,0,0,1,8.969,8.17s1.047-.327,3.438,1.282a11.779,11.779,0,0,1,6.25,0c2.39-1.625,3.438-1.28,3.438-1.28a4.492,4.492,0,0,1,.125,3.312A4.836,4.836,0,0,1,23.5,14.843c0,4.8-2.922,5.86-5.7,6.172a2.96,2.96,0,0,1,.844,2.313c0,1.672-.016,3.015-.016,3.438,0,.327.235.717.86.592A12.506,12.506,0,0,0,15.5,3Z" transform="translate(-3 -3)" fill-rule="evenodd"/></svg>