<svg xmlns="http://www.w3.org/2000/svg" width="462.055" height="381.343" viewBox="0 0 462.055 381.343"><g transform="translate(0 0.002)"><g transform="translate(0.5 0.25)"><path d="M266.053,250.368v-2.1l-37.791-9.742-1.065-51.5L124.118,201.04l-.967,57.409a2.629,2.629,0,0,0,1.476,2.476l29.054,14.142a2.629,2.629,0,0,0,1.756.194Z" transform="translate(38.069 58.486)" fill="#b3b3b3" stroke="#999" stroke-miterlimit="10" stroke-width="0.5"/><path d="M265,248.278,230.464,238.9a3.943,3.943,0,0,1-2.91-3.8l-.061-48.96L125.707,199.975l-.361,56.427a3.943,3.943,0,0,0,2.27,3.74L152.759,271.9a3.943,3.943,0,0,0,2.528.276Z" transform="translate(38.759 58.207)" fill="#e6e6e6" stroke="#999" stroke-miterlimit="10" stroke-width="0.25"/><g transform="translate(164.341 268.003)"><path d="M126.08,221.861,226.5,204.73v13.843L126.026,237.255Z" transform="translate(-125.367 -203.95)" fill="#999"/><path d="M226,205.694v12.519l-99.158,18.437.05-14.047L226,205.694m1.314-1.558L125.584,221.494l-.059,16.739,101.792-18.927V204.137Z" transform="translate(-125.524 -204.137)" fill="#999"/></g><path d="M18.765,314.082,19.111,1.645A6.135,6.135,0,0,0,18,.72L2.616,7.521A3.943,3.943,0,0,0,.5,11.016V304.3a5.258,5.258,0,0,0,3.567,4.979l14.157,4.807" transform="translate(-0.5 -0.102)" fill="#999" stroke="#999" stroke-linecap="square" stroke-miterlimit="10" stroke-width="1"/><path d="M392.195,246.854,16.507,314.759a3.943,3.943,0,0,1-4.645-3.881V4.193A3.943,3.943,0,0,1,16.1.261L391.784,28a3.943,3.943,0,0,1,3.653,3.933V242.973a3.943,3.943,0,0,1-3.243,3.881Z" transform="translate(3.073 -0.25)" fill="#e6e6e6" stroke="#ccc" stroke-miterlimit="10" stroke-width="0.5"/><path d="M384.63,240.059,22.7,296.669c-1.637.352-2.531-.683-2.531-2.357L20.293,11.7a2.629,2.629,0,0,1,2.76-2.626L382.6,30.82a3.943,3.943,0,0,1,3.705,3.927l.454,202.4A3.076,3.076,0,0,1,384.63,240.059Z" transform="translate(5.685 2.523)" fill="#333" stroke="#b3b3b3" stroke-linecap="round" stroke-miterlimit="10" stroke-width="0.25"/><path d="M123.292,220.4l2.739-.5v13.376l-2.876-.933Z" transform="translate(38.071 68.823)" fill="#999"/><path d="M355.07,264.937l-.02-2.334-58.429-17.081-148.9,32.7.049,1.962,53.581,23.69a3.943,3.943,0,0,0,2.583.21Z" transform="translate(45.797 76.88)" fill="#b3b3b3"/><g transform="translate(193.503 320.812)"><path d="M202.87,302.706a3.753,3.753,0,0,1-1.529-.324l-53.213-23.527a.493.493,0,0,1,.09-.932L295.887,244.5a2.447,2.447,0,0,1,1.285.053l57.337,18.06a.493.493,0,0,1-.026.947L203.816,302.585a3.793,3.793,0,0,1-.946.121Z" transform="translate(-147.67 -244.273)" fill="#e6e6e6"/><path d="M296.47,244.641a2.3,2.3,0,0,1,.691.106L354.5,262.807a.329.329,0,0,1-.016.631L203.815,302.464a3.614,3.614,0,0,1-2.368-.193l-53.213-23.527a.329.329,0,0,1,.06-.621L295.962,244.7a2.308,2.308,0,0,1,.508-.057m0-.329a2.627,2.627,0,0,0-.581.065L148.222,277.8a.657.657,0,0,0-.121,1.242l53.213,23.527a3.942,3.942,0,0,0,2.583.21l150.667-39.027a.657.657,0,0,0,.033-1.263L297.26,244.434a2.632,2.632,0,0,0-.79-.121Z" transform="translate(-147.71 -244.312)" fill="#999"/></g><g transform="translate(201.843 323.32)"><path d="M174.18,274.1v-.442l-6.809-2.467-8.756,1.588v.44l6.768,2.951Z" transform="translate(-152.621 -238.368)" fill="#1a1a1a"/><path d="M185.142,276.987v-.442L178.107,274l-11.73,2.342v.44l6.981,3.044Z" transform="translate(-150.18 -237.484)" fill="#1a1a1a"/><path d="M196.385,279.952v-.442l-7.272-2.624-14.727,3.139v.44l7.2,3.142Z" transform="translate(-147.662 -236.576)" fill="#1a1a1a"/><path d="M199.074,284.715v-.44l-7.479-2.755-8.941,1.786v.442l7.44,3.244Z" transform="translate(-145.062 -235.119)" fill="#1a1a1a"/><path d="M168.337,269.934v-.442l-3.324-.97-10.956,2.057v.442l3.3,1.437Z" transform="translate(-154.055 -239.207)" fill="#1a1a1a"/><path d="M179.252,267.439V267l-3.357-.937L164.568,268.2v.442l3.332,1.4Z" transform="translate(-150.749 -239.981)" fill="#1a1a1a"/><path d="M189.633,265v-.442l-3.386-.906-10.508,1.955v.442l3.365,1.371Z" transform="translate(-147.236 -240.738)" fill="#1a1a1a"/><path d="M200.044,262.619v-.44l-3.415-.877-10.817,2.027v.44l3.393,1.341Z" transform="translate(-144.068 -241.477)" fill="#1a1a1a"/><path d="M210.091,260.291v-.442L206.65,259l-10.575,1.972v.44l3.42,1.312Z" transform="translate(-140.841 -242.2)" fill="#1a1a1a"/><path d="M219.915,258.014v-.442l-3.462-.818-10.342,1.918v.44l3.445,1.283Z" transform="translate(-137.686 -242.907)" fill="#1a1a1a"/><path d="M229.524,255.788v-.442l-3.485-.79-10.117,1.867v.44l3.469,1.254Z" transform="translate(-134.6 -243.599)" fill="#1a1a1a"/><path d="M238.924,253.609v-.44l-3.506-.765-9.9,1.817v.442l3.49,1.226Z" transform="translate(-131.581 -244.275)" fill="#1a1a1a"/><path d="M248.122,251.478v-.44l-3.523-.74-9.686,1.769v.44l3.51,1.2Z" transform="translate(-128.628 -244.938)" fill="#1a1a1a"/><path d="M257.125,249.392v-.44l-3.54-.715-9.483,1.722v.442l3.527,1.174Z" transform="translate(-125.738 -245.586)" fill="#1a1a1a"/><path d="M265.94,247.35v-.442l-3.556-.689L253.1,247.9v.44l3.544,1.15Z" transform="translate(-122.908 -246.22)" fill="#1a1a1a"/><path d="M182.929,272.02v-.44l-6.86-2.413-8.593,1.55v.44l6.822,2.9Z" transform="translate(-149.835 -239.004)" fill="#1a1a1a"/><path d="M191.512,269.981v-.442L184.6,267.18l-8.434,1.512v.442l6.873,2.841Z" transform="translate(-147.101 -239.629)" fill="#1a1a1a"/><path d="M199.938,267.98v-.442l-6.955-2.308-8.279,1.476v.442l6.922,2.788Z" transform="translate(-144.417 -240.242)" fill="#1a1a1a"/><path d="M208.207,266.016v-.442l-7-2.258-8.127,1.442v.44l6.967,2.737Z" transform="translate(-141.783 -240.844)" fill="#1a1a1a"/><path d="M216.324,264.087v-.44l-7.039-2.21-7.98,1.406v.442l7.01,2.687Z" transform="translate(-139.197 -241.435)" fill="#1a1a1a"/><path d="M224.3,262.194v-.44l-7.077-2.162-7.837,1.375v.44l7.049,2.638Z" transform="translate(-136.657 -242.015)" fill="#1a1a1a"/><path d="M232.122,260.335v-.44l-7.113-2.116-7.7,1.342v.44l7.086,2.592Z" transform="translate(-134.163 -242.585)" fill="#1a1a1a"/><path d="M239.723,258.509v-.442L232.578,256l-7.2,1.226v.44l7.123,2.544Z" transform="translate(-131.625 -243.145)" fill="#1a1a1a"/><path d="M247.364,256.714v-.44l-7.176-2.027-7.431,1.28v.44l7.155,2.5Z" transform="translate(-129.306 -243.696)" fill="#1a1a1a"/><path d="M254.785,254.952v-.44l-7.2-1.985-7.3,1.251v.44l7.185,2.457Z" transform="translate(-126.941 -244.237)" fill="#1a1a1a"/><path d="M262.078,253.22v-.44l-7.232-1.943-7.177,1.221v.442l7.212,2.415Z" transform="translate(-124.617 -244.768)" fill="#1a1a1a"/><path d="M193.2,274.854v-.442l-7.086-2.488-8.61,1.6v.44l7.048,2.972Z" transform="translate(-146.681 -238.137)" fill="#1a1a1a"/><path d="M201.8,272.76v-.44l-7.132-2.433-8.448,1.563v.44l7.1,2.915Z" transform="translate(-143.941 -238.777)" fill="#1a1a1a"/><path d="M210.233,270.708v-.442l-7.178-2.379-8.29,1.526v.44l7.145,2.86Z" transform="translate(-141.253 -239.406)" fill="#1a1a1a"/><path d="M218.511,268.692v-.44l-7.22-2.327-8.137,1.489v.44l7.189,2.808Z" transform="translate(-138.615 -240.023)" fill="#1a1a1a"/><path d="M226.635,266.715v-.44L219.376,264l-7.989,1.454v.442l7.231,2.755Z" transform="translate(-136.026 -240.629)" fill="#1a1a1a"/><path d="M234.611,264.774v-.442l-7.3-2.227-7.843,1.42v.442l7.269,2.705Z" transform="translate(-133.484 -241.224)" fill="#1a1a1a"/><path d="M242.442,262.869v-.442l-7.328-2.179-7.7,1.387v.442l7.3,2.655Z" transform="translate(-130.988 -241.809)" fill="#1a1a1a"/><path d="M250.131,261v-.442l-7.361-2.132-7.566,1.354v.44l7.339,2.608Z" transform="translate(-128.536 -242.382)" fill="#1a1a1a"/><path d="M257.683,259.16v-.442l-7.39-2.087-7.432,1.322v.442l7.369,2.562Z" transform="translate(-126.129 -242.946)" fill="#1a1a1a"/><path d="M265.1,257.354v-.442l-7.418-2.043-7.3,1.292v.44l7.4,2.517Z" transform="translate(-123.763 -243.5)" fill="#1a1a1a"/><path d="M272.39,255.581v-.442l-7.441-2-7.176,1.262v.44l7.425,2.473Z" transform="translate(-121.439 -244.044)" fill="#1a1a1a"/><path d="M276.227,250.261v-.442l-7.273-1.872-14.021,2.808v.44l7.239,2.374Z" transform="translate(-122.333 -245.677)" fill="#1a1a1a"/><path d="M284.213,252.978v-.44l-7.477-1.938-11.7,2.336v.44l7.449,2.43Z" transform="translate(-119.156 -244.843)" fill="#1a1a1a"/><path d="M203.73,277.755v-.44l-7.262-2.542-8.624,1.656v.44l7.227,3.027Z" transform="translate(-143.43 -237.241)" fill="#1a1a1a"/><path d="M212.352,275.614v-.442l-7.368-2.508-8.46,1.615v.442l7.333,2.992Z" transform="translate(-140.7 -237.904)" fill="#1a1a1a"/><path d="M220.8,273.506v-.442l-7.41-2.451-8.3,1.576v.442l7.379,2.934Z" transform="translate(-138.008 -238.549)" fill="#1a1a1a"/><path d="M229.08,271.439V271l-7.45-2.4-8.144,1.538v.442l7.422,2.88Z" transform="translate(-135.366 -239.182)" fill="#1a1a1a"/><path d="M237.209,269.411v-.442l-7.487-2.345-7.995,1.5v.44l7.461,2.826Z" transform="translate(-132.775 -239.804)" fill="#1a1a1a"/><path d="M245.186,267.419v-.44l-7.523-2.3-7.847,1.467v.442l7.5,2.774Z" transform="translate(-130.231 -240.414)" fill="#1a1a1a"/><path d="M253.018,265.465v-.44l-7.554-2.245-7.705,1.433v.44l7.532,2.722Z" transform="translate(-127.733 -241.012)" fill="#1a1a1a"/><path d="M260.706,263.548v-.442l-7.584-2.2-7.567,1.4v.442l7.563,2.672Z" transform="translate(-125.281 -241.6)" fill="#1a1a1a"/><path d="M268.256,261.664v-.44l-7.612-2.149-7.432,1.366v.44l7.592,2.625Z" transform="translate(-122.874 -242.178)" fill="#1a1a1a"/><path d="M275.67,259.815v-.442l-7.638-2.1-7.3,1.334v.44l7.62,2.579Z" transform="translate(-120.508 -242.745)" fill="#1a1a1a"/><path d="M294.723,255.771v-.44l-7.688-2-18.915,4.158v.44l7.645,2.533Z" transform="translate(-118.185 -243.985)" fill="#1a1a1a"/><path d="M207.995,282.432v-.442l-7.531-2.692-8.765,1.744v.44l7.492,3.18Z" transform="translate(-142.217 -235.818)" fill="#1a1a1a"/><path d="M216.739,280.192v-.44l-7.578-2.632-8.594,1.7v.442l7.544,3.118Z" transform="translate(-139.428 -236.503)" fill="#1a1a1a"/><path d="M225.314,278v-.44l-7.621-2.572-8.43,1.66v.44l7.588,3.057Z" transform="translate(-136.694 -237.175)" fill="#1a1a1a"/><path d="M280.714,266.551v-.442l-7.524-2.175L218.1,277.225v.44l7.353,2.887Z" transform="translate(-133.916 -240.65)" fill="#1a1a1a"/><path d="M277.218,264.71v-.44l-7.837-2.225-7.462,1.418v.442l7.818,2.7Z" transform="translate(-120.135 -241.244)" fill="#1a1a1a"/><path d="M284.659,262.805v-.44l-7.86-2.178-7.328,1.385v.442l7.843,2.654Z" transform="translate(-117.761 -241.828)" fill="#1a1a1a"/><path d="M295,260.013v-.44l-7.893-2.108-4.747.741v.442l7.884,2.571Z" transform="translate(-113.707 -242.684)" fill="#1a1a1a"/><path d="M288.636,261.093v-.442l-3.958-.857-4.815.77V261l3.953,1.309Z" transform="translate(-114.492 -241.951)" fill="#1a1a1a"/><path d="M299.413,258.345v-.44l-3.972-.823-4.687.737v.44l3.968,1.275Z" transform="translate(-111.068 -242.804)" fill="#1a1a1a"/></g><g transform="translate(201.843 322.878)"><path d="M159.011,272.892l8.272-1.916,6.25,2.7-8.26,1.944Z" transform="translate(-152.496 -237.993)" fill="#1a1a1a"/><path d="M167.34,271.2l5.79,2.474-7.717,1.816-5.756-2.511,7.683-1.78m.03-.344-8.756,2.029,6.767,2.951,8.8-2.071-6.809-2.909Z" transform="translate(-152.621 -238.032)" fill="#b3b3b3"/><path d="M166.771,276.456l11.251-2.668,6.478,2.781-11.249,2.71Z" transform="translate(-150.056 -237.109)" fill="#1a1a1a"/><path d="M178.077,274.01l6.02,2.555-10.709,2.582-5.977-2.606,10.666-2.53m.029-.345-11.729,2.783,6.981,3.044,11.783-2.841-7.036-2.986Z" transform="translate(-150.179 -237.148)" fill="#b3b3b3"/><path d="M174.776,280.138l14.253-3.466,6.717,2.866-14.263,3.525Z" transform="translate(-147.538 -236.202)" fill="#1a1a1a"/><path d="M189.085,276.9l6.26,2.639-13.724,3.392-6.209-2.708,13.673-3.324m.028-.345-14.727,3.58,7.205,3.142,14.793-3.656-7.272-3.066Z" transform="translate(-147.661 -236.24)" fill="#b3b3b3"/><path d="M183.039,283.417l8.472-2.112,6.933,3-8.459,2.144Z" transform="translate(-144.94 -234.745)" fill="#1a1a1a"/><path d="M191.565,281.53l6.485,2.771-7.929,2.01-6.451-2.813,7.9-1.968m.028-.346-8.94,2.228,7.44,3.244,8.98-2.277-7.48-3.2Z" transform="translate(-145.062 -234.783)" fill="#b3b3b3"/><path d="M154.453,270.7l10.468-2.387,2.767,1.2-10.443,2.4Z" transform="translate(-153.929 -238.832)" fill="#1a1a1a"/><path d="M164.98,268.53l2.3.974-9.889,2.273-2.284-.994,9.877-2.253m.03-.344-10.956,2.5,3.3,1.437,10.982-2.524-3.326-1.411Z" transform="translate(-154.055 -238.871)" fill="#b3b3b3"/><path d="M164.974,268.315l10.827-2.469,2.789,1.172-10.8,2.483Z" transform="translate(-150.621 -239.607)" fill="#1a1a1a"/><path d="M175.864,266.068l2.305.946-10.239,2.354-2.295-.967,10.228-2.333m.029-.344-11.325,2.583,3.333,1.4,11.35-2.609-3.358-1.379Z" transform="translate(-150.748 -239.645)" fill="#b3b3b3"/><path d="M176.152,265.721l10-2.281,2.808,1.144-9.972,2.292Z" transform="translate(-147.106 -240.363)" fill="#1a1a1a"/><path d="M186.218,263.661l2.313.92-9.4,2.161-2.3-.939,9.392-2.143m.026-.343-10.507,2.4,3.365,1.371,10.529-2.42-3.388-1.347Z" transform="translate(-147.236 -240.402)" fill="#b3b3b3"/><path d="M186.233,263.437l10.3-2.349,2.826,1.116-10.273,2.361Z" transform="translate(-143.936 -241.103)" fill="#1a1a1a"/><path d="M196.6,261.309l2.32.895-9.692,2.228-2.312-.914,9.684-2.208m.025-.343-10.816,2.467,3.393,1.341,10.838-2.491-3.415-1.317Z" transform="translate(-144.068 -241.141)" fill="#b3b3b3"/><path d="M196.5,261.081l10.047-2.292,2.842,1.088-10.022,2.306Z" transform="translate(-140.706 -241.826)" fill="#1a1a1a"/><path d="M206.627,259.01l2.325.87-9.432,2.168-2.318-.888,9.425-2.15m.023-.342-10.575,2.412,3.421,1.311,10.595-2.436-3.44-1.288Z" transform="translate(-140.841 -241.864)" fill="#b3b3b3"/><path d="M206.544,258.778l9.806-2.237,2.856,1.062-9.778,2.248Z" transform="translate(-137.548 -242.533)" fill="#1a1a1a"/><path d="M216.429,256.761l2.328.847-9.181,2.11-2.322-.864,9.175-2.093m.021-.342-10.342,2.359,3.445,1.282,10.36-2.382Z" transform="translate(-137.685 -242.571)" fill="#b3b3b3"/><path d="M216.365,256.525l9.568-2.183,2.871,1.037-9.543,2.193Z" transform="translate(-134.46 -243.224)" fill="#1a1a1a"/><path d="M226.017,254.562l2.33.823-8.937,2.054-2.325-.84,8.932-2.037m.02-.342-10.116,2.307,3.469,1.254,10.133-2.329-3.486-1.232Z" transform="translate(-134.599 -243.263)" fill="#b3b3b3"/><path d="M225.97,254.322l9.342-2.131,2.88,1.011-9.316,2.141Z" transform="translate(-131.439 -243.901)" fill="#1a1a1a"/><path d="M235.4,252.41l2.33.8-8.7,2-2.327-.818,8.7-1.984m.018-.342-9.9,2.258,3.49,1.227,9.913-2.279-3.506-1.205Z" transform="translate(-131.581 -243.939)" fill="#b3b3b3"/><path d="M235.369,252.166l9.121-2.081,2.891.988-9.094,2.09Z" transform="translate(-128.484 -244.563)" fill="#1a1a1a"/><path d="M244.581,250.3l2.33.78-8.472,1.948-2.327-.8,8.469-1.932m.017-.341-9.686,2.209,3.51,1.2,9.7-2.23-3.524-1.18Z" transform="translate(-128.628 -244.602)" fill="#b3b3b3"/><path d="M244.566,250.056l8.909-2.032,2.9.965-8.879,2.041Z" transform="translate(-125.592 -245.211)" fill="#1a1a1a"/><path d="M253.569,248.243l2.328.76-8.25,1.9-2.326-.774,8.248-1.881m.016-.341-9.481,2.163,3.527,1.175,9.495-2.182-3.54-1.155Z" transform="translate(-125.737 -245.25)" fill="#b3b3b3"/><path d="M253.57,247.991l8.7-1.985,2.9.944-8.673,1.993Z" transform="translate(-122.76 -245.846)" fill="#1a1a1a"/><path d="M262.369,246.225l2.325.739-8.035,1.847-2.324-.754,8.034-1.832m.014-.34L253.1,248l3.544,1.15,9.3-2.137-3.556-1.13Z" transform="translate(-122.908 -245.884)" fill="#b3b3b3"/><path d="M167.878,270.829l8.1-1.876,6.295,2.649-8.088,1.9Z" transform="translate(-149.708 -238.63)" fill="#1a1a1a"/><path d="M176.039,269.174l5.825,2.423-7.537,1.775-5.793-2.458,7.5-1.739m.029-.344-8.592,1.991,6.822,2.9,8.631-2.031-6.862-2.854Z" transform="translate(-149.834 -238.668)" fill="#b3b3b3"/><path d="M176.578,268.8l7.933-1.838,6.336,2.6-7.917,1.864Z" transform="translate(-146.972 -239.255)" fill="#1a1a1a"/><path d="M184.575,267.188l5.857,2.374-7.361,1.732-5.827-2.409,7.331-1.7m.027-.344L176.17,268.8l6.873,2.841,8.469-1.993-6.91-2.8Z" transform="translate(-147.1 -239.293)" fill="#b3b3b3"/><path d="M185.119,266.815l7.769-1.8,6.375,2.547-7.755,1.826Z" transform="translate(-144.286 -239.867)" fill="#1a1a1a"/><path d="M192.955,265.238l5.886,2.327-7.19,1.692-5.858-2.36,7.161-1.659m.026-.343-8.277,1.918,6.922,2.788,8.312-1.956-6.957-2.75Z" transform="translate(-144.416 -239.906)" fill="#b3b3b3"/><path d="M193.5,264.866l7.611-1.763,6.409,2.5-7.594,1.786Z" transform="translate(-141.65 -240.469)" fill="#1a1a1a"/><path d="M201.182,263.323l5.913,2.28-7.023,1.653-5.886-2.313,7-1.621m.024-.343-8.126,1.883,6.967,2.737,8.158-1.92-7-2.7Z" transform="translate(-141.782 -240.508)" fill="#b3b3b3"/><path d="M201.73,262.95l7.457-1.727,6.442,2.453-7.439,1.751Z" transform="translate(-139.062 -241.06)" fill="#1a1a1a"/><path d="M209.261,261.444l5.937,2.236-6.861,1.615-5.912-2.267,6.836-1.584m.023-.343L201.3,262.95l7.01,2.687,8.01-1.885-7.04-2.651Z" transform="translate(-139.196 -241.099)" fill="#b3b3b3"/><path d="M209.811,261.069l7.307-1.692,6.475,2.407L216.3,263.5Z" transform="translate(-136.521 -241.641)" fill="#1a1a1a"/><path d="M217.2,259.6l5.959,2.192-6.7,1.577-5.936-2.221L217.2,259.6m.021-.342-7.837,1.815,7.049,2.639,7.865-1.851-7.078-2.6Z" transform="translate(-136.657 -241.679)" fill="#b3b3b3"/><path d="M217.749,259.224l7.159-1.659,6.5,2.362-7.139,1.681Z" transform="translate(-134.025 -242.211)" fill="#1a1a1a"/><path d="M224.989,257.784l5.978,2.149-6.549,1.541-5.957-2.178,6.527-1.512m.02-.342-7.7,1.783,7.087,2.591L232.122,260Z" transform="translate(-134.162 -242.249)" fill="#b3b3b3"/><path d="M225.824,257.323l6.651-1.539L239,258.1l-6.629,1.56Z" transform="translate(-131.485 -242.771)" fill="#1a1a1a"/><path d="M232.558,256l6,2.108-6.031,1.42-5.976-2.134L232.558,256m.019-.342-7.2,1.667,7.123,2.544,7.219-1.7Z" transform="translate(-131.625 -242.809)" fill="#b3b3b3"/><path d="M233.2,255.627l6.879-1.593,6.553,2.275-6.858,1.615Z" transform="translate(-129.165 -243.321)" fill="#1a1a1a"/><path d="M240.168,254.253l6.012,2.067-6.253,1.472-5.993-2.095,6.233-1.444m.018-.342-7.43,1.722,7.154,2.5,7.453-1.754-7.177-2.468Z" transform="translate(-129.306 -243.36)" fill="#b3b3b3"/><path d="M240.73,253.876l6.742-1.562,6.575,2.236-6.72,1.581Z" transform="translate(-126.798 -243.862)" fill="#1a1a1a"/><path d="M247.562,252.533l6.026,2.028L247.478,256l-6.008-2.055,6.092-1.411m.017-.342-7.3,1.692,7.185,2.457,7.323-1.723Z" transform="translate(-126.941 -243.901)" fill="#b3b3b3"/><path d="M248.126,252.154l6.61-1.531,6.593,2.2-6.587,1.551Z" transform="translate(-124.472 -244.394)" fill="#1a1a1a"/><path d="M254.828,250.842l6.038,1.99-5.971,1.405-6.021-2.016,5.955-1.379m.015-.341-7.177,1.663,7.213,2.415,7.2-1.694-7.232-2.384Z" transform="translate(-124.616 -244.432)" fill="#b3b3b3"/><path d="M177.9,273.637l8.121-1.926,6.522,2.726-8.106,1.956Z" transform="translate(-146.554 -237.762)" fill="#1a1a1a"/><path d="M186.086,271.933l6.054,2.5-7.558,1.823-6.023-2.539,7.527-1.786m.027-.344-8.609,2.042,7.048,2.971,8.647-2.085-7.086-2.929Z" transform="translate(-146.68 -237.801)" fill="#b3b3b3"/><path d="M186.623,271.559l7.951-1.886,6.561,2.674L193.2,274.26Z" transform="translate(-143.813 -238.403)" fill="#1a1a1a"/><path d="M194.637,269.9l6.085,2.451-7.381,1.78-6.055-2.486,7.351-1.744m.026-.344-8.447,2,7.1,2.915,8.482-2.045-7.134-2.874Z" transform="translate(-143.941 -238.441)" fill="#b3b3b3"/><path d="M195.177,269.521l7.784-1.847,6.6,2.621-7.768,1.873Z" transform="translate(-141.123 -239.032)" fill="#1a1a1a"/><path d="M203.029,267.9l6.113,2.4-7.208,1.738-6.085-2.436,7.18-1.7m.024-.344-8.29,1.967,7.146,2.86,8.323-2.007-7.179-2.82Z" transform="translate(-141.253 -239.07)" fill="#b3b3b3"/><path d="M203.572,267.52l7.624-1.809,6.633,2.57-7.605,1.835Z" transform="translate(-138.483 -239.649)" fill="#1a1a1a"/><path d="M211.266,265.932l6.139,2.353-7.039,1.7-6.112-2.387,7.014-1.664m.023-.343-8.137,1.93,7.189,2.807,8.168-1.969Z" transform="translate(-138.615 -239.688)" fill="#b3b3b3"/><path d="M211.811,265.556l7.469-1.771,6.666,2.522-7.45,1.8Z" transform="translate(-135.892 -240.255)" fill="#1a1a1a"/><path d="M219.353,264.005l6.162,2.306-6.875,1.658-6.137-2.339,6.851-1.625m.022-.343-7.988,1.895,7.231,2.755,8.017-1.933-7.26-2.717Z" transform="translate(-136.025 -240.293)" fill="#b3b3b3"/><path d="M219.9,263.627l7.316-1.734,6.693,2.474-7.3,1.76Z" transform="translate(-133.348 -240.85)" fill="#1a1a1a"/><path d="M227.294,262.113l6.182,2.261-6.716,1.619L220.6,263.7l6.693-1.588m.02-.343-7.843,1.861,7.269,2.7,7.87-1.9-7.3-2.668Z" transform="translate(-133.483 -240.888)" fill="#b3b3b3"/><path d="M227.844,261.736l7.169-1.7,6.721,2.428-7.148,1.725Z" transform="translate(-130.85 -241.434)" fill="#1a1a1a"/><path d="M235.092,260.255l6.2,2.216-6.561,1.582-6.18-2.247,6.539-1.551m.019-.342-7.7,1.827,7.3,2.655,7.727-1.863-7.33-2.62Z" transform="translate(-130.987 -241.472)" fill="#b3b3b3"/><path d="M235.644,259.877l7.025-1.667,6.746,2.384-7,1.688Z" transform="translate(-128.397 -242.008)" fill="#1a1a1a"/><path d="M242.751,258.43l6.217,2.174-6.408,1.545-6.2-2.2,6.389-1.516m.018-.342-7.565,1.795,7.338,2.608,7.588-1.83-7.362-2.573Z" transform="translate(-128.536 -242.046)" fill="#b3b3b3"/><path d="M243.306,258.051l6.884-1.633,6.768,2.34-6.86,1.654Z" transform="translate(-125.988 -242.571)" fill="#1a1a1a"/><path d="M250.275,256.638l6.232,2.131-6.261,1.51-6.214-2.16,6.243-1.481m.017-.342-7.431,1.763,7.369,2.562,7.453-1.8-7.391-2.528Z" transform="translate(-126.128 -242.61)" fill="#b3b3b3"/><path d="M250.833,256.257l6.747-1.6,6.789,2.3-6.725,1.621Z" transform="translate(-123.621 -243.125)" fill="#1a1a1a"/><path d="M257.667,254.876l6.245,2.091-6.117,1.475-6.227-2.119,6.1-1.447m.016-.342-7.3,1.732,7.4,2.517,7.322-1.765-7.418-2.484Z" transform="translate(-123.763 -243.164)" fill="#b3b3b3"/><path d="M258.227,254.5l6.616-1.571,6.806,2.257-6.588,1.588Z" transform="translate(-121.296 -243.67)" fill="#1a1a1a"/><path d="M264.932,253.146l6.256,2.051-5.977,1.441-6.239-2.078,5.961-1.414m.014-.342-7.175,1.7,7.425,2.473,7.194-1.735-7.443-2.44Z" transform="translate(-121.439 -243.708)" fill="#b3b3b3"/><path d="M255.4,250.849l13.447-3.114,6.624,2.128-13.435,3.161Z" transform="translate(-122.186 -245.302)" fill="#1a1a1a"/><path d="M268.938,247.953l6.055,1.926-12.808,3.014-6.032-1.978,12.786-2.962m.013-.34-14.02,3.248,7.239,2.374,14.056-3.308-7.274-2.313Z" transform="translate(-122.332 -245.341)" fill="#b3b3b3"/><path d="M265.495,253.027l11.135-2.641,6.831,2.2-11.116,2.68Z" transform="translate(-119.01 -244.468)" fill="#1a1a1a"/><path d="M276.723,250.605l6.269,1.994-10.5,2.531-6.25-2.039,10.476-2.486m.013-.341-11.7,2.776,7.449,2.43,11.73-2.828Z" transform="translate(-119.155 -244.507)" fill="#b3b3b3"/><path d="M188.241,276.537l8.137-1.978,6.7,2.783-8.125,2.01Z" transform="translate(-143.304 -236.867)" fill="#1a1a1a"/><path d="M196.44,274.782l6.234,2.56-7.579,1.873-6.2-2.6,7.549-1.835m.026-.344-8.624,2.1,7.226,3.026,8.661-2.14-7.263-2.983Z" transform="translate(-143.43 -236.905)" fill="#b3b3b3"/><path d="M196.929,274.386l7.966-1.936,6.8,2.751-7.949,1.966Z" transform="translate(-140.572 -237.53)" fill="#1a1a1a"/><path d="M204.959,272.673l6.323,2.531-7.4,1.829-6.294-2.568,7.37-1.792m.025-.344-8.459,2.056,7.333,2.992,8.494-2.1Z" transform="translate(-140.699 -237.568)" fill="#b3b3b3"/><path d="M205.495,272.295l7.8-1.9,6.835,2.7-7.782,1.923Z" transform="translate(-137.878 -238.175)" fill="#1a1a1a"/><path d="M213.361,270.621l6.35,2.479-7.224,1.786-6.323-2.515,7.2-1.75m.023-.344-8.3,2.018,7.379,2.935,8.332-2.059-7.411-2.893Z" transform="translate(-138.007 -238.213)" fill="#b3b3b3"/><path d="M213.9,270.241l7.637-1.856,6.867,2.646-7.617,1.882Z" transform="translate(-135.235 -238.808)" fill="#1a1a1a"/><path d="M221.607,268.607l6.374,2.429-7.054,1.744-6.349-2.464,7.029-1.709m.022-.343-8.145,1.98,7.421,2.88,8.174-2.021-7.451-2.839Z" transform="translate(-135.366 -238.846)" fill="#b3b3b3"/><path d="M222.147,268.228l7.479-1.818,6.9,2.595-7.46,1.843Z" transform="translate(-132.642 -239.429)" fill="#1a1a1a"/><path d="M229.7,266.631l6.4,2.38-6.888,1.7-6.372-2.414,6.864-1.669m.02-.343-7.994,1.943,7.461,2.826,8.022-1.983-7.489-2.787Z" transform="translate(-132.774 -239.468)" fill="#b3b3b3"/><path d="M230.242,266.251l7.324-1.781,6.926,2.546-7.3,1.8Z" transform="translate(-130.096 -240.039)" fill="#1a1a1a"/><path d="M237.644,264.692l6.415,2.333-6.727,1.663-6.394-2.365,6.705-1.63m.019-.343-7.847,1.908,7.5,2.774,7.873-1.945-7.523-2.735Z" transform="translate(-130.23 -240.077)" fill="#b3b3b3"/><path d="M238.189,264.31l7.174-1.744,6.95,2.5-7.151,1.768Z" transform="translate(-127.597 -240.638)" fill="#1a1a1a"/><path d="M245.444,262.787l6.433,2.286-6.57,1.624-6.412-2.318,6.549-1.592m.018-.343-7.7,1.873,7.532,2.723,7.729-1.91-7.556-2.686Z" transform="translate(-127.733 -240.676)" fill="#b3b3b3"/><path d="M245.992,262.406l7.03-1.71,6.972,2.451-7.006,1.731Z" transform="translate(-125.143 -241.226)" fill="#1a1a1a"/><path d="M253.1,260.917l6.448,2.242-6.417,1.586-6.429-2.272,6.4-1.555m.016-.342-7.566,1.839,7.563,2.673,7.588-1.875-7.586-2.637Z" transform="translate(-125.281 -241.264)" fill="#b3b3b3"/><path d="M253.655,260.533l6.885-1.673,7,2.4-6.864,1.7Z" transform="translate(-122.733 -241.804)" fill="#1a1a1a"/><path d="M260.626,259.08l6.461,2.2-6.268,1.549-6.444-2.228,6.25-1.52m.015-.342-7.43,1.806,7.593,2.625,7.451-1.842-7.613-2.59Z" transform="translate(-122.873 -241.842)" fill="#b3b3b3"/><path d="M261.179,258.7l6.748-1.64,7.014,2.361-6.723,1.663Z" transform="translate(-120.367 -242.371)" fill="#1a1a1a"/><path d="M268.016,257.276l6.472,2.156-6.123,1.513-6.456-2.185,6.107-1.484m.014-.342-7.3,1.775,7.62,2.578,7.318-1.809-7.639-2.544Z" transform="translate(-120.508 -242.409)" fill="#b3b3b3"/><path d="M268.572,257.575l18.358-4.463,7.048,2.265-18.351,4.536Z" transform="translate(-118.042 -243.611)" fill="#1a1a1a"/><path d="M287.022,253.332l6.491,2.064-17.736,4.384-6.467-2.143,17.711-4.306m.012-.341-18.915,4.6,7.645,2.533,18.959-4.686-7.689-2.445Z" transform="translate(-118.185 -243.649)" fill="#b3b3b3"/><path d="M192.091,281.15l8.288-2.066,6.975,2.935-8.273,2.1Z" transform="translate(-142.093 -235.444)" fill="#1a1a1a"/><path d="M200.437,279.308l6.519,2.712-7.738,1.962-6.487-2.753,7.706-1.921m.026-.345-8.764,2.184,7.492,3.18,8.8-2.231-7.531-3.133Z" transform="translate(-142.217 -235.482)" fill="#b3b3b3"/><path d="M200.965,278.928l8.11-2.022,7.015,2.875L208,281.835Z" transform="translate(-139.303 -236.129)" fill="#1a1a1a"/><path d="M209.136,277.129l6.549,2.655-7.551,1.914L201.615,279l7.522-1.875m.024-.345-8.594,2.143,7.543,3.118,8.629-2.188-7.578-3.072Z" transform="translate(-139.428 -236.167)" fill="#b3b3b3"/><path d="M209.668,276.748l7.937-1.978,7.051,2.818-7.918,2.009Z" transform="translate(-136.566 -236.8)" fill="#1a1a1a"/><path d="M217.669,274.993l6.577,2.6-7.371,1.869-6.55-2.638,7.343-1.83m.023-.344-8.429,2.1,7.589,3.057,8.461-2.145-7.622-3.013Z" transform="translate(-136.693 -236.839)" fill="#b3b3b3"/><path d="M218.508,277.327,273.1,263.72l6.917,2.432-54.685,13.854Z" transform="translate(-133.786 -240.275)" fill="#1a1a1a"/><path d="M273.173,263.942l6.4,2.224-54.1,13.706-6.3-2.471,54-13.459m.016-.342L218.1,277.331l7.353,2.886,55.263-14-7.525-2.616Z" transform="translate(-133.915 -240.313)" fill="#b3b3b3"/><path d="M262.356,263.556l6.926-1.726,7.223,2.482-6.9,1.751Z" transform="translate(-119.997 -240.87)" fill="#1a1a1a"/><path d="M269.365,262.051l6.7,2.278-6.311,1.6-6.68-2.31,6.293-1.568m.014-.342-7.461,1.86,7.819,2.7,7.481-1.9-7.838-2.666Z" transform="translate(-120.135 -240.908)" fill="#b3b3b3"/><path d="M269.913,261.663l6.783-1.69,7.241,2.438-6.758,1.711Z" transform="translate(-117.621 -241.454)" fill="#1a1a1a"/><path d="M276.783,260.194l6.707,2.234-6.163,1.563-6.691-2.264,6.147-1.532m.013-.342-7.327,1.826,7.844,2.654,7.345-1.862Z" transform="translate(-117.76 -241.492)" fill="#b3b3b3"/><path d="M282.811,258.294,287,257.249l7.264,2.371-4.159,1.054Z" transform="translate(-113.565 -242.31)" fill="#1a1a1a"/><path d="M287.092,257.47l6.719,2.169-3.556.9-6.706-2.188,3.544-.883m.012-.342-4.745,1.183,7.884,2.572L295,259.677l-7.895-2.549Z" transform="translate(-113.707 -242.348)" fill="#b3b3b3"/><path d="M280.31,260.653l4.265-1.073,3.337,1.117-4.231,1.074Z" transform="translate(-114.351 -241.577)" fill="#1a1a1a"/><path d="M284.665,259.8l2.792.916-3.629.92-2.789-.924,3.626-.911m.012-.342-4.814,1.21,3.953,1.31,4.819-1.222Z" transform="translate(-114.492 -241.615)" fill="#b3b3b3"/><path d="M291.207,257.905l4.129-1.037,3.341,1.084-4.095,1.038Z" transform="translate(-110.924 -242.43)" fill="#1a1a1a"/><path d="M295.429,257.088l2.787.887-3.484.883-2.785-.894,3.482-.875m.011-.342-4.687,1.178,3.969,1.275,4.691-1.189-3.973-1.264Z" transform="translate(-111.068 -242.468)" fill="#b3b3b3"/></g><path d="M377.375,253.813l.043-1.287L315.8,237.286l-46.489,7.582-.08,2.434,7.017,2.058,7.135,1.049,46.823,13.919Z" transform="translate(84.008 74.29)" fill="#b3b3b3" stroke="#999" stroke-miterlimit="10" stroke-width="0.25"/><path d="M269.769,245.129l46.434-8.783,60.36,16.46-46.545,10.233Z" transform="translate(84.177 73.995)" fill="#e6e6e6"/><path d="M316.324,236.561l59.716,16.266L330.19,262.908,270.631,245.2l45.693-8.642m.013-.337-47.1,8.907,60.939,18.116,47.239-10.387-61.08-16.636Z" transform="translate(84.01 73.956)" fill="gray"/><path d="M270.53,245.234l45.433-8.888,4.766,1.314-45.07,9.1Z" transform="translate(84.416 73.995)" fill="#999"/><path d="M316.084,236.561l4.093,1.115-44.345,8.951-4.449-1.321,44.7-8.744m.012-.337-46.09,9.016,5.81,1.725,45.786-9.241-5.506-1.5Z" transform="translate(84.251 73.956)" fill="gray"/></g></g></svg>