<svg xmlns="http://www.w3.org/2000/svg" viewBox="0 0 751.0012 224.52"><defs><style>.cls-1{fill:#007aff;}.cls-2{fill:#0061aa;}.cls-3{fill:#54a3da;}</style></defs><g id="Layer_2" data-name="Layer 2"><g id="DIV"><path class="cls-1" d="M385.4978,59.07v1.09a20.2735,20.2735,0,0,0-.38-3.92A10.6723,10.6723,0,0,1,385.4978,59.07Z"/><path class="cls-1" d="M385.4978,60.16V184.43c-.09-.01-.17-.03-.25-.04a20.2773,20.2773,0,0,1-17.23-20.04c0-.71.04-1.41.1-2.1a19.3781,19.3781,0,0,1-.1-2.02V40.08c.09.01.17.04.25.05a20.2384,20.2384,0,0,1,17.23,20.03Z"/><path class="cls-2" d="M313.13,194.4367H420.64a13.572,13.572,0,0,1,11.6009,6.54l6.6368,10.9379H333.3823a13.5655,13.5655,0,0,1-10.6951-5.2275Z"/><path class="cls-2" d="M313.13,194.4359h40.16c-.01.09-.03.17-.04.25a20.2772,20.2772,0,0,1-20.04,17.23c-.71,0-1.41-.04-2.1-.1A20.2942,20.2942,0,0,1,313.13,194.4359Z"/><path class="cls-2" d="M400.2311,211.915h40.16c-.01-.09-.03-.17-.04-.25a20.2771,20.2771,0,0,0-20.04-17.23c-.71,0-1.41.04-2.1.1A20.2943,20.2943,0,0,0,400.2311,211.915Z"/><path class="cls-2" d="M313.13,12.6058H420.64a13.572,13.572,0,0,1,11.6009,6.54l6.6368,10.938H333.3823a13.5655,13.5655,0,0,1-10.6951-5.2275Z"/><path class="cls-2" d="M313.13,12.605h40.16c-.01.09-.03.17-.04.25a20.2772,20.2772,0,0,1-20.04,17.23c-.71,0-1.41-.04-2.1-.1A20.2942,20.2942,0,0,1,313.13,12.605Z"/><path class="cls-2" d="M400.2311,30.0842h40.16c-.01-.09-.03-.17-.04-.25a20.2772,20.2772,0,0,0-20.04-17.23c-.71,0-1.41.04-2.1.1A20.2942,20.2942,0,0,0,400.2311,30.0842Z"/><path class="cls-1" d="M577.1711,32.85l-36.1,121.04.08-.07-3.38,11.35-2.71,9.08a11.2886,11.2886,0,0,1-1.27,1.13c-.03,0-.04.01-.05.04a10.5194,10.5194,0,0,1-2.25,1.25,10.3041,10.3041,0,0,1-3.9.76,10.6126,10.6126,0,0,1-3.54-.61c0-.02-.02-.02-.03-.02a10.1176,10.1176,0,0,1-5.25-4.31,9.261,9.261,0,0,1-.92-1.9l.08-.27,3.45-11.55.18-.61,38.37-128.66c.1-.42.22-.84.35-1.26a20.2825,20.2825,0,0,1,22.37-14.07c.08.02.17.02.26.04l-5.76,18.63Z"/><path class="cls-2" d="M535.0612,174.25l-2.72,9.12-5.35,17.93-1.31,4.39v.02l-.14.46a.1622.1622,0,0,1-.03.09l-.12.43-.19.62a7.95,7.95,0,0,1-2.57,3.32c-.02,0-.03.01-.04.03a8.5132,8.5132,0,0,1-1.72.96,8.0038,8.0038,0,0,1-2.99.58,8.1207,8.1207,0,0,1-2.71-.47c0-.01-.01-.01-.02-.01a7.9054,7.9054,0,0,1-4.68-4.63l-.33-1.12-1.39-4.65-50.94-170.81.02-.01-5.44-17.94c.09-.01.17-.02.25-.03a20.2845,20.2845,0,0,1,21.91,12.99c.02.04.03.08.05.13l.67,2.26,38.15,127.92,4.21,14.08c.04.14.08.27.12.4.03.1.07.19.1.28a9.261,9.261,0,0,0,.92,1.9,10.1176,10.1176,0,0,0,5.25,4.31c.01,0,.03,0,.03.02a10.6126,10.6126,0,0,0,3.54.61,10.3041,10.3041,0,0,0,3.9-.76,10.5194,10.5194,0,0,0,2.25-1.25c.01-.03.02-.04.05-.04A11.2886,11.2886,0,0,0,535.0612,174.25Z"/><path class="cls-3" d="M195.86,60.935v1.09a20.6656,20.6656,0,0,0-.37-3.88A10.8449,10.8449,0,0,1,195.86,60.935Z"/><path class="cls-1" d="M195.86,62.025v124.27c-.09-.01-.17-.03-.25-.04a20.2773,20.2773,0,0,1-17.23-20.04c0-.71.04-1.41.1-2.1a19.3781,19.3781,0,0,1-.1-2.02V41.945c.09.01.17.03.25.04a20.29,20.29,0,0,1,16.86,16.16A20.6656,20.6656,0,0,1,195.86,62.025Z"/><path class="cls-2" d="M301.13,35.415v153.69a19.7336,19.7336,0,0,1-.19,2.77,20.1011,20.1011,0,0,1-4.33,9.99c-.45.53-.91,1.06-1.42,1.56a20.0651,20.0651,0,0,1-11.54,5.73,18.6078,18.6078,0,0,1-2.79.2H168.1c.01-.09.03-.17.04-.25a20.2719,20.2719,0,0,1,20.01-17.23h87.58a7.7986,7.7986,0,0,0,3.57-.85,7.9252,7.9252,0,0,0,4.32-6.27c.02-.13.02-.27.03-.41.01-.13.01-.26.01-.4s0-.27-.01-.4V40.985c.01-.14.01-.28.01-.41s0-.27-.01-.41c-.01-.13-.01-.26-.03-.4a7.97,7.97,0,0,0-3.14-5.55c-.02,0-.03-.01-.04-.03a8.5091,8.5091,0,0,0-1.72-.96,8.0019,8.0019,0,0,0-2.99-.58H168.09c.01-.09.03-.17.04-.25a20.2822,20.2822,0,0,1,20.02-17.23h92.71a18.6078,18.6078,0,0,1,2.79.2,20.0651,20.0651,0,0,1,11.54,5.73c.51.5.97,1.03,1.42,1.56a20.1011,20.1011,0,0,1,4.33,9.99A19.7336,19.7336,0,0,1,301.13,35.415Z"/></g><g id="Brackets"><path class="cls-2" d="M156.09,165.24v59.28L23.25,151.73l-2.09-1.14a7.9379,7.9379,0,0,1,2.09-13.76c.01,0,.02,0,.02-.01l44.75-24.6.02-.01,83.15,46.49,1.72.96c.01.02.02.03.04.03A7.97,7.97,0,0,1,156.09,165.24Z"/><path class="cls-1" d="M156.09,0V59.1a7.3211,7.3211,0,0,1-.04.81,7.9253,7.9253,0,0,1-4.32,6.27L68.04,112.21l-.02.01-44.75,24.6c0,.01-.01.01-.02.01a7.9449,7.9449,0,0,0-2.09,13.76L9.68,144.3l-5.1-2.8a.1718.1718,0,0,0-.05-.02l-1-.55c-.01-.01-.02-.01-.02-.02-.16-.1-.32-.21-.47-.32A7.9513,7.9513,0,0,1,0,135.31V88.84a7.9105,7.9105,0,0,1,3.01-5.26c.1-.07.2-.15.3-.22h.01l1.51-.83c.01-.01.01-.01.02-.01Z"/><path class="cls-2" d="M594.9111,59.28V0l132.84,72.79,2.09,1.14a7.9379,7.9379,0,0,1-2.09,13.76c-.01,0-.02,0-.02.01l-44.75,24.6-.02.01-83.15-46.49-1.72-.96c-.01-.02-.02-.03-.04-.03A7.97,7.97,0,0,1,594.9111,59.28Z"/><path class="cls-1" d="M594.9111,224.52v-59.1a7.2981,7.2981,0,0,1,.04-.81,7.9248,7.9248,0,0,1,4.32-6.27l83.69-46.03.02-.01,44.75-24.6c0-.01.01-.01.02-.01a7.9448,7.9448,0,0,0,2.09-13.76l11.48,6.29,5.1,2.8a.17.17,0,0,0,.05.02l1,.55c.01.01.02.01.02.02.16.1.32.21.47.32a7.9518,7.9518,0,0,1,3.04,5.28v46.47a7.9113,7.9113,0,0,1-3.01,5.26c-.1.07-.2.15-.3.22h-.01l-1.51.83c-.01.01-.01.01-.02.01Z"/></g></g></svg>