<svg xmlns="http://www.w3.org/2000/svg" xmlns:xlink="http://www.w3.org/1999/xlink" viewBox="0 0 717.5102 593.8347"><defs><style>.cls-1{isolation:isolate;}.cls-2{fill:#d9d9db;}.cls-3{fill:#a6a6a6;mix-blend-mode:multiply;}.cls-4{fill:#b8b8b8;}.cls-5{fill:#c7c7c7;}.cls-6{fill:url(#名称未設定グラデーション_5);}.cls-7{fill:url(#名称未設定グラデーション_5-2);}.cls-8{fill:#1d3333;}.cls-9{fill:#1d1f21;}.cls-10{fill:#e05022;}.cls-11{fill:#2077fa;}.cls-12{fill:#c85d93;}.cls-13{fill:#f1da4e;}.cls-14{fill:#fff;}.cls-15{fill:#b5b5b5;}.cls-16{fill:#919191;}</style><linearGradient id="名称未設定グラデーション_5" x1="358.7551" y1="8.9184" x2="358.7551" y2="14.7247" gradientUnits="userSpaceOnUse"><stop offset="0"/><stop offset="0.2885" stop-color="#030303"/><stop offset="0.4812" stop-color="#0b0b0c"/><stop offset="0.646" stop-color="#1a1a1b"/><stop offset="0.7949" stop-color="#2e2e30"/><stop offset="0.9321" stop-color="#49494b"/><stop offset="1" stop-color="#59595c"/></linearGradient><linearGradient id="名称未設定グラデーション_5-2" x1="358.4526" y1="10.2341" x2="358.4526" y2="13.7433" xlink:href="#名称未設定グラデーション_5"/></defs><title>Porfolio_Desktop</title><g class="cls-1"><g id="Main_Container" data-name="Main Container"><g id="Desktop"><g id="Base"><path class="cls-2" d="M749.0194,694.3833v-2.722H530.9806v2.722s-.2331,2.534,7.7588,2.534H741.2606C749.2525,696.9173,749.0194,694.3833,749.0194,694.3833Z" transform="translate(-281.2449 -103.0827)"/><path class="cls-2" d="M748.2779,690.3874s-19.1025-12.8649-23.001-15.9837-5.36-3.6061-7.4071-12.4751c-2.6618-11.5343-6.8223-65.1247-6.8223-65.1247H568.9525s-4.1606,53.59-6.8223,65.1247c-2.0467,8.869-3.5087,9.3563-7.4071,12.4751s-23.001,15.9837-23.001,15.9837-3.5086,2.534,4.6782,3.3137,103.6,0,103.6,0,95.4129.78,103.6,0S748.2779,690.3874,748.2779,690.3874Z" transform="translate(-281.2449 -103.0827)"/><path class="cls-2" d="M710.1228,597.8038c.5809,7.3763,4.2849,53.57,6.7726,64.35,1.9557,8.4745,3.4861,9.6753,6.8393,12.3063.29.2277.5955.4672.9175.7249,3.8859,3.1086,22.2857,15.506,23.04,16.0135a1.2952,1.2952,0,0,1,.32.3625c-.1347.1517-.9119.8026-4.5072,1.145-2.3831.227-12.6121.342-30.4029.342-30.3406,0-72.67-.343-73.11-.3465-.4241.0035-42.7526.3465-73.0938.3465-17.7909,0-28.02-.115-30.4029-.342-3.5948-.3424-4.3722-.9931-4.5071-1.1449a1.2249,1.2249,0,0,1,.2927-.3438c.7814-.5263,19.1812-12.9237,23.0671-16.0323.322-.2577.6273-.4972.9175-.7249,3.3532-2.631,4.8836-3.8318,6.8393-12.3063,2.4876-10.78,6.1917-56.9733,6.7726-64.35H710.1228m.9247-1H568.9525s-4.1606,53.59-6.8223,65.1248c-2.0468,8.869-3.5087,9.3563-7.4071,12.4751s-23.001,15.9837-23.001,15.9837-3.5086,2.534,4.6782,3.3137c2.7287.26,15.1509.3465,30.4977.3465,30.6964,0,73.1019-.3465,73.1019-.3465s42.4063.3465,73.1021.3465c15.3507,0,27.7685-.0866,30.4977-.3465,8.1868-.78,4.6782-3.3137,4.6782-3.3137s-19.1025-12.8649-23.001-15.9837-5.36-3.6061-7.4071-12.4751c-2.6618-11.5344-6.8223-65.1248-6.8223-65.1248Z" transform="translate(-281.2449 -103.0827)"/><path class="cls-3" d="M749.0194,694.3833v-2.722H530.9806v2.722s-.2331,2.534,7.7588,2.534H741.2606C749.2525,696.9173,749.0194,694.3833,749.0194,694.3833Z" transform="translate(-281.2449 -103.0827)"/><path class="cls-4" d="M748.2779,690.3874s-19.1025-12.8649-23.001-15.9837-5.36-3.6061-7.4071-12.4751c-2.6618-11.5343-6.8223-65.1247-6.8223-65.1247H568.9525s-4.1606,53.59-6.8223,65.1247c-2.0467,8.869-3.5087,9.3563-7.4071,12.4751s-23.001,15.9837-23.001,15.9837-3.5086,2.534,4.6782,3.3137,103.6,0,103.6,0,95.4129.78,103.6,0S748.2779,690.3874,748.2779,690.3874Z" transform="translate(-281.2449 -103.0827)"/></g><path id="Bottom" class="cls-5" d="M281.2449,579.2608a17.5431,17.5431,0,0,0,17.5431,17.5431H981.212a17.5431,17.5431,0,0,0,17.5431-17.5431V530.76h-717.51Z" transform="translate(-281.2449 -103.0827)"/><path id="Border" d="M981.212,103.0827H298.788a17.5431,17.5431,0,0,0-17.5431,17.5431V530.76h717.51V120.6258A17.5431,17.5431,0,0,0,981.212,103.0827Z" transform="translate(-281.2449 -103.0827)"/><g id="Camera"><circle class="cls-6" cx="358.7551" cy="11.9559" r="2.7743"/><circle cx="358.7551" cy="11.9559" r="1.7225"/><circle class="cls-7" cx="358.4526" cy="11.9559" r="1.4199"/></g><g id="_YOUR_SCREEN_HERE_" data-name="[YOUR SCREEN HERE]"><rect id="Screen-BG" class="cls-8" x="28.7551" y="28.9173" width="659" height="371"/><g id="Window--Bottom"><rect x="54.7551" y="312.9173" width="606" height="73" rx="12" ry="12"/></g><rect id="Window--Left" class="cls-9" x="54.7551" y="39.9173" width="299" height="257" rx="12" ry="12"/><g id="Code"><path class="cls-10" d="M367.4487,185.4839v-3.9883l18.24-12.062v5.1445l-13.5557,8.8159v.1919l13.5557,8.816v5.144Z" transform="translate(-281.2449 -103.0827)"/><path class="cls-10" d="M394.0161,168.042h5.6133v12.5893h10.7314V168.042h5.6133v31.3852h-5.6133V185.5229H399.6294v13.9043h-5.6133Z" transform="translate(-281.2449 -103.0827)"/><path class="cls-10" d="M431.0034,172.7368h-9.8882V168.042h25.3594v4.6948h-9.8882v26.69h-5.583Z" transform="translate(-281.2449 -103.0827)"/><path class="cls-10" d="M451.2974,168.042H457.48l3.729,12.2432,1.2895,4.7011h.1919l1.2593-4.7011,3.76-12.2432h6.1826v31.3852H468.959V186.7651c0-3.3012.5508-9.8227.8135-12.8637h-.1441l-2.0932,7.29L464.08,191.11h-3.1621l-3.43-9.9185-2.0357-7.29h-.1313c.3232,3.041.813,9.5625.813,12.8637v12.6621h-4.8364Z" transform="translate(-281.2449 -103.0827)"/><path class="cls-10" d="M482.7563,168.042h5.5523v26.6909h14.7251v4.6943H482.7563Z" transform="translate(-281.2449 -103.0827)"/><path class="cls-10" d="M510.7,192.4019l13.5557-8.816v-.1919L510.7,174.5781v-5.1445l18.24,12.062v3.9883l-18.24,12.062Z" transform="translate(-281.2449 -103.0827)"/><path class="cls-11" d="M367.4487,235.8174v-3.9883l18.24-12.062v5.1445l-13.5557,8.8159v.1919l13.5557,8.816v5.144Z" transform="translate(-281.2449 -103.0827)"/><path class="cls-11" d="M393.45,234.1562c0-10.2519,6.2393-16.3564,14.5361-16.3564a12.6158,12.6158,0,0,1,8.9932,3.9106l-3.1147,3.4781a8.0223,8.0223,0,0,0-5.8785-2.5327c-5.2075,0-8.7915,4.3022-8.7915,11.3339,0,7.1631,3.584,11.4908,8.9327,11.4908a8.3178,8.3178,0,0,0,6.3339-3.1035l3.1148,3.3818a12.5506,12.5506,0,0,1-10.0093,4.5781C399.79,250.3369,393.45,244.57,393.45,234.1562Z" transform="translate(-281.2449 -103.0827)"/><path class="cls-11" d="M422.2046,245.751l3.2461-3.8413a13.267,13.267,0,0,0,8.7583,3.5708c3.6509,0,5.5835-1.606,5.5835-3.7989,0-2.7963-2.1489-3.5454-5.2114-4.8364l-4.3135-1.8755c-3.2964-1.2832-6.6983-3.72-6.6983-8.3237,0-4.9946,4.4966-8.8462,10.9024-8.8462a14.4708,14.4708,0,0,1,10.0493,3.9941l-2.8521,3.5435a11.1235,11.1235,0,0,0-7.4643-2.6816c-2.979,0-4.9868,1.3408-4.9868,3.6621,0,2.4424,2.5053,3.3354,5.352,4.4267l4.1172,1.792c3.9942,1.5362,6.8193,3.92,6.8193,8.4536,0,5.0982-4.2944,9.3467-11.63,9.3467A17.0278,17.0278,0,0,1,422.2046,245.751Z" transform="translate(-281.2449 -103.0827)"/><path class="cls-11" d="M451.0044,245.751l3.2461-3.8413a13.267,13.267,0,0,0,8.7583,3.5708c3.6509,0,5.5835-1.606,5.5835-3.7989,0-2.7963-2.1489-3.5454-5.2114-4.8364l-4.3135-1.8755c-3.2964-1.2832-6.6983-3.72-6.6983-8.3237,0-4.9946,4.4966-8.8462,10.9024-8.8462a14.4708,14.4708,0,0,1,10.0493,3.9941l-2.852,3.5435a11.124,11.124,0,0,0-7.4644-2.6816c-2.979,0-4.9868,1.3408-4.9868,3.6621,0,2.4424,2.5053,3.3354,5.352,4.4267l4.1172,1.792c3.9942,1.5362,6.8194,3.92,6.8194,8.4536,0,5.0982-4.2945,9.3467-11.63,9.3467A17.0278,17.0278,0,0,1,451.0044,245.751Z" transform="translate(-281.2449 -103.0827)"/><path class="cls-11" d="M481.9,242.7354l13.5557-8.816v-.1919L481.9,224.9116v-5.1445l18.24,12.062v3.9883l-18.24,12.062Z" transform="translate(-281.2449 -103.0827)"/><path class="cls-12" d="M367.4487,286.15v-3.9883l18.24-12.062v5.1445l-13.5557,8.8159v.1919l13.5557,8.816v5.144Z" transform="translate(-281.2449 -103.0827)"/><path class="cls-12" d="M393.4048,296.084l3.2461-3.8413a13.267,13.267,0,0,0,8.7583,3.5708c3.6509,0,5.5835-1.606,5.5835-3.7989,0-2.7963-2.1489-3.5454-5.2115-4.8364l-4.3134-1.8755c-3.2964-1.2832-6.6983-3.72-6.6983-8.3237,0-4.9946,4.4966-8.8462,10.9024-8.8462a14.47,14.47,0,0,1,10.0493,3.9942l-2.8521,3.5434a11.1235,11.1235,0,0,0-7.4643-2.6816c-2.979,0-4.9868,1.3408-4.9868,3.6621,0,2.4424,2.5053,3.3354,5.352,4.4267l4.1172,1.792c3.9941,1.5362,6.8193,3.92,6.8193,8.4536,0,5.0982-4.2944,9.3467-11.63,9.3467A17.0278,17.0278,0,0,1,393.4048,296.084Z" transform="translate(-281.2449 -103.0827)"/><path class="cls-12" d="M422.7759,293.7632c0-5.2852,4.65-7.9175,16.2934-8.7368-.1967-2.64-1.768-4.6231-5.6113-4.6231a16.4485,16.4485,0,0,0-7.7021,2.5025l-2.06-3.6748a21.6456,21.6456,0,0,1,10.7871-3.29c6.543,0,10.1387,3.6338,10.1387,10.2v13.9527h-4.563l-.4243-2.9214h-.1616c-2.4737,1.91-5.64,3.4975-8.7989,3.4975C426.0767,300.67,422.7759,297.8516,422.7759,293.7632Zm16.2934-.312v-4.9561c-8.47.5567-10.9126,2.2954-10.9126,4.8394,0,2.0761,1.8365,2.9736,4.1724,2.9736C434.7051,296.3081,436.8921,295.2012,439.0693,293.4512Z" transform="translate(-281.2449 -103.0827)"/><path class="cls-12" d="M451.1611,297.0215l2.4234-3.5386a17.379,17.379,0,0,0,9.8647,2.9917c3.2666,0,4.7993-1.2441,4.7993-2.8071,0-1.5474-1.0356-2.4077-6.5263-3.5454-6.2906-1.3184-9.0855-3.541-9.0855-7.1338,0-4.0967,3.7349-7.0474,10.3311-7.0474a18.4356,18.4356,0,0,1,9.8667,3.1172l-2.5542,3.4077a14.5321,14.5321,0,0,0-7.8072-2.36c-3.0556,0-4.3193,1.1792-4.3193,2.6206,0,1.6635,1.7344,2.2456,6.147,3.2011,7.5346,1.6626,9.4951,3.6709,9.4951,7.4122,0,4.0566-3.9077,7.33-11.0737,7.33A21.3271,21.3271,0,0,1,451.1611,297.0215Z" transform="translate(-281.2449 -103.0827)"/><path class="cls-12" d="M479.9609,297.0215l2.4234-3.5386a17.379,17.379,0,0,0,9.8647,2.9917c3.2666,0,4.7993-1.2441,4.7993-2.8071,0-1.5474-1.0356-2.4077-6.5263-3.5454-6.2906-1.3184-9.0855-3.541-9.0855-7.1338,0-4.0967,3.7349-7.0474,10.3311-7.0474a18.4356,18.4356,0,0,1,9.8667,3.1172l-2.5542,3.4077a14.5318,14.5318,0,0,0-7.8072-2.36c-3.0556,0-4.3193,1.1792-4.3193,2.6206,0,1.6635,1.7344,2.2456,6.147,3.2011,7.5347,1.6626,9.4951,3.6709,9.4951,7.4122,0,4.0566-3.9077,7.33-11.0737,7.33A21.3271,21.3271,0,0,1,479.9609,297.0215Z" transform="translate(-281.2449 -103.0827)"/><path class="cls-12" d="M510.7,293.0684l13.5557-8.816v-.1919L510.7,275.2446V270.1l18.24,12.062V286.15l-18.24,12.062Z" transform="translate(-281.2449 -103.0827)"/><path class="cls-13" d="M367.4487,336.4839v-3.9883l18.24-12.062v5.1445l-13.5557,8.8159v.1919l13.5557,8.816v5.144Z" transform="translate(-281.2449 -103.0827)"/><path class="cls-13" d="M393.9233,345.8062l3.3194-3.4351c1.8066,2.5024,4.1089,3.7759,6.3633,3.7759,3.8125,0,5.6347-1.8155,5.6347-6.542V323.7065H396.5635v-4.6948H414.854v21.0528c0,5.9975-2.834,10.9389-11.0815,10.9389A11.6931,11.6931,0,0,1,393.9233,345.8062Z" transform="translate(-281.2449 -103.0827)"/><path class="cls-13" d="M422.2046,346.4175l3.2461-3.8413a13.267,13.267,0,0,0,8.7583,3.5708c3.6509,0,5.5835-1.606,5.5835-3.7989,0-2.7963-2.1489-3.5454-5.2114-4.8364l-4.3135-1.8755c-3.2964-1.2832-6.6983-3.72-6.6983-8.3237,0-4.9946,4.4966-8.8462,10.9024-8.8462A14.4708,14.4708,0,0,1,444.521,322.46l-2.8521,3.5435a11.1235,11.1235,0,0,0-7.4643-2.6816c-2.979,0-4.9868,1.3408-4.9868,3.6621,0,2.4424,2.5053,3.3354,5.352,4.4267l4.1172,1.792c3.9942,1.5362,6.8193,3.92,6.8193,8.4536,0,5.0982-4.2944,9.3467-11.63,9.3467A17.0278,17.0278,0,0,1,422.2046,346.4175Z" transform="translate(-281.2449 -103.0827)"/><path class="cls-13" d="M453.1006,343.4019l13.5556-8.816v-.1919l-13.5556-8.8159v-5.1445l18.24,12.062v3.9883l-18.24,12.062Z" transform="translate(-281.2449 -103.0827)"/><path class="cls-14" d="M368.0679,457.5742l13.5556-8.8164v-.1914L368.0679,439.75v-5.1436l18.2407,12.0616v3.9882l-18.2407,12.0626Z" transform="translate(-281.2449 -103.0827)"/><path class="cls-14" d="M396.8672,457.5742l13.5557-8.8164v-.1914L396.8672,439.75v-5.1436l18.24,12.0616v3.9882l-18.24,12.0626Z" transform="translate(-281.2449 -103.0827)"/><path class="cls-14" d="M423.0747,448.9951c0-10.3174,6.0908-16.3564,14.2339-16.3564a12.0008,12.0008,0,0,1,8.9175,3.9111l-3.1148,3.4775a7.4639,7.4639,0,0,0-5.8027-2.5322c-4.9883,0-8.4414,4.3018-8.4414,11.334,0,7.1631,3.0112,11.49,8.539,11.49a6.2817,6.2817,0,0,0,4.2085-1.3662v-6.7812h-5.3769v-4.5635h10.4429V461.457a14.1024,14.1024,0,0,1-9.6026,3.7188C429.1221,465.1758,423.0747,459.4092,423.0747,448.9951Z" transform="translate(-281.2449 -103.0827)"/><path class="cls-14" d="M463.7822,445.42H453.5981v-4.3974H469.335V464.6h-5.5528Zm-1.5312-12.4013a3.9491,3.9491,0,0,1,7.8872,0,3.9512,3.9512,0,0,1-7.8872,0Z" transform="translate(-281.2449 -103.0827)"/><path class="cls-14" d="M487.4731,455.1211V445.42h-6.3076v-4.14l6.54-.2578.7217-7.3829h4.5986v7.3829h10.72V445.42h-10.72v9.6787c0,3.8946,1.4629,5.6494,5.4463,5.6494a14.6537,14.6537,0,0,0,5.1279-.95l1.0757,4.038a22.99,22.99,0,0,1-7.5435,1.34C489.9277,465.1758,487.4731,461.1289,487.4731,455.1211Z" transform="translate(-281.2449 -103.0827)"/></g><g id="Window--Right"><g id="Window_BG"><rect class="cls-15" x="362.0051" y="40.1673" width="298.5" height="256.5" rx="11.75" ry="11.75"/><path d="M930,143.5A11.5131,11.5131,0,0,1,941.5,155V388A11.5131,11.5131,0,0,1,930,399.5H655A11.5131,11.5131,0,0,1,643.5,388V155A11.5131,11.5131,0,0,1,655,143.5H930m0-.5H655a12.0353,12.0353,0,0,0-12,12V388a12.0353,12.0353,0,0,0,12,12H930a12.0353,12.0353,0,0,0,12-12V155a12.0353,12.0353,0,0,0-12-12Z" transform="translate(-281.2449 -103.0827)"/></g><g id="WR_Header"><rect class="cls-16" x="368.7551" y="46.9173" width="284" height="30" rx="12" ry="12"/></g><g id="WR_left"><rect class="cls-16" x="368.7551" y="94.9173" width="142" height="131" rx="12" ry="12"/></g><g id="WR_Right--upper"><rect class="cls-16" x="533.7551" y="94.9173" width="119" height="54" rx="12" ry="12"/></g><g id="WR_Right--lower"><rect class="cls-16" x="533.7551" y="168.9173" width="119" height="57" rx="12" ry="12"/></g><g id="WR_Footer"><rect class="cls-16" x="368.7551" y="236.9173" width="284" height="50" rx="12" ry="12"/></g></g></g></g></g></g></svg>