<svg id="Layer_1" data-name="Layer 1" xmlns="http://www.w3.org/2000/svg" xmlns:xlink="http://www.w3.org/1999/xlink" viewBox="0 0 591.5595 595.785"><defs><style>.cls-1{fill:none;}.cls-2{fill:#6F5EF0;}.cls-3{clip-path:url(#clip-path);}.cls-4{fill:#fddac3;}.cls-5{fill:#0d0e0d;}.cls-6{fill:#ecbea6;}.cls-7{fill:#2d2d2d;}.cls-8{fill:#fff;}.cls-9{fill:#707773;}.cls-10{fill:#3a3737;}.cls-11,.cls-12{fill:#302f2f;}.cls-12{opacity:0.61;}.cls-13{fill:#ce7676;}.cls-14{fill:#e0b199;}.cls-15{fill:#c0927d;}.cls-16{fill:#ededed;}</style><clipPath id="clip-path" transform="translate(-1.8583)"><circle class="cls-1" cx="297.638" cy="332.1552" r="263.6298"/></clipPath></defs><title>DavidFINALMASK</title><circle class="cls-2" cx="295.7797" cy="295.7797" r="295.7797"/><g class="cls-3"><rect class="cls-4" x="176.6444" y="421.5252" width="236.8381" height="174.2597" rx="12"/><path class="cls-5" d="M218.3988,379.3085H371.7282a41.7544,41.7544,0,0,1,41.7544,41.7544v0a27.21,27.21,0,0,1-27.21,27.21H203.8542a27.21,27.21,0,0,1-27.21-27.21v0a41.7544,41.7544,0,0,1,41.7544-41.7544Z"/><rect class="cls-5" x="209.1552" y="379.3085" width="173.249" height="216.4765" rx="28.4807"/><path class="cls-4" d="M273.2321,362.0483H313.33a1.3844,1.3844,0,0,1,1.3844,1.3844v34.35A14.5978,14.5978,0,0,1,300.1165,412.38H286.4455a14.5978,14.5978,0,0,1-14.5978-14.5978v-34.35a1.3844,1.3844,0,0,1,1.3844-1.3844Z"/><path class="cls-6" d="M315.2912,350.0577H275.1934a1.3844,1.3844,0,0,0-1.3844,1.3844v18.4344a100.0163,100.0163,0,0,0,42.8666.0083V351.4421A1.3844,1.3844,0,0,0,315.2912,350.0577Z" transform="translate(-1.8583)"/><path class="cls-4" d="M295.2428,366.0411c-41.5659,0-75.3823-48.5516-75.3823-90.1175V179.9148H370.6242v96.0088C370.6242,317.49,336.8078,366.0411,295.2428,366.0411Z" transform="translate(-1.8583)"/><path class="cls-7" d="M289.3053,126.2031c8.7173,1.48,21.6671,11.8614,29.6688,13.9316,4.2239,1.0929,9.9165,4.0311,13.8253,5.6311a89.79,89.79,0,0,1,11.18,5.5008,84.1188,84.1188,0,0,1,7.903,5.2142q2.5365,1.889,4.88,3.9407,1.3663,1.1959,2.6633,2.4442,2.64,2.5407,4.9777,5.2861c9.4954,11.1554,15.068,24.7055,15.068,39.3007L376.3,275.7c0,8.6867-1.6855,19.29-7.6769,19.29H221.862c-5.9915,0-5.9744-8.46-5.9744-17.1466l-4.8741-70.3913c0-18.5842.4179-54.4367,18.9807-51.8108,10.3413,1.4628-6.9158,2.1148-7.5694-2.282C218.49,126.8867,265.1823,122.107,289.3053,126.2031Z" transform="translate(-1.8583)"/><ellipse class="cls-4" cx="365.7663" cy="245.2391" rx="25.3307" ry="26.9703"/><ellipse class="cls-4" cx="221.0025" cy="245.2391" rx="25.3307" ry="26.9703"/><path class="cls-4" d="M294.9065,352.9034h0c-39.9754,0-72.3818-47.1417-72.3818-87.1171V207.9872a35.21,35.21,0,0,1,35.21-35.21h74.3439a35.21,35.21,0,0,1,35.21,35.21v57.7991C367.2883,305.7617,334.8819,352.9034,294.9065,352.9034Z" transform="translate(-1.8583)"/><path class="cls-8" d="M313.2239,242.8926h40.0573C355.658,216.0982,309.3321,213.6768,313.2239,242.8926Z" transform="translate(-1.8583)"/><path class="cls-8" d="M238.0171,242.1538h40.0573C280.4512,215.36,234.1254,212.938,238.0171,242.1538Z" transform="translate(-1.8583)"/><path class="cls-9" d="M370.6242,179.9148" transform="translate(-1.8583)"/><path class="cls-10" d="M234.5861,146.3721" transform="translate(-1.8583)"/><polygon class="cls-7" points="221.002 245.239 215.256 245.239 213.113 228.547 221.002 214.615 221.002 245.239"/><polygon class="cls-7" points="365.822 212.74 372.959 212.74 375.622 231.477 370.722 247.115 365.822 247.115 365.822 212.74"/><polyline class="cls-7" points="369.767 212.74 377.155 217.323 375.433 231.477 373.711 231.477"/><path class="cls-7" d="M218.9159,214.6153h-4.6816l-2.7526-.4014s.3413,12.7926.9441,14.1322,4.6886,16.893,4.6886,16.893l5.2913-28.2125" transform="translate(-1.8583)"/><circle class="cls-11" cx="255.9552" cy="232.3858" r="9.9583"/><circle class="cls-11" cx="330.1411" cy="232.3858" r="9.9583"/><path class="cls-11" d="M353.05,221.2212c-5.78-3.4348-31.6471-5.6011-33.6047-1.0471C326.1841,204.4963,352.1436,209.556,353.05,221.2212Z" transform="translate(-1.8583)"/><path class="cls-11" d="M238.0171,221.068c5.81-3.3842,31.6948-5.3243,33.6125-.7533C265.0276,204.5786,239.0249,209.4112,238.0171,221.068Z" transform="translate(-1.8583)"/><path class="cls-4" d="M356.0489,308.5263c-7.1705,16.4219-28.7432,41.0346-60.0232,40.2-28.6875-.7653-49.4637-22.48-60.0232-40.2-6.1438-10.31-12.7652-35.6164-.3126-42.9823,10.5829-6.26,45.1061,2.7822,60.3358,2.7822,15.8639,0,45.1437-5.67,57.0238,1.3013C365.9945,277.224,360.6816,297.9165,356.0489,308.5263Z" transform="translate(-1.8583)"/><path class="cls-4" d="M356.0478,308.5263c-7.1705,16.4219-28.7433,41.0346-60.0233,40.2-28.6874-.7653-49.4636-22.48-60.0232-40.2-1.0772-1.8077-.0693-5.2237-1.07-7.7758-1.3261-3.38-4.5928-6.1111-5.3558-10.0737a46.8388,46.8388,0,0,1-.9119-10.2873c.2148-6.3743,2.17-11.9735,7.0257-14.8455,10.5829-6.26,45.1061,2.7822,60.3357,2.7822,15.864,0,45.1438-5.67,57.0238,1.3013C365.9933,277.224,360.6805,297.9165,356.0478,308.5263Z" transform="translate(-1.8583)"/><path class="cls-4" d="M345.4057,283.5592" transform="translate(-1.8583)"/><path class="cls-11" d="M278.0207,299.8128" transform="translate(-1.8583)"/><path class="cls-12" d="M292.2846,285.3453" transform="translate(-1.8583)"/><path class="cls-12" d="M337.0266,299.8128" transform="translate(-1.8583)"/><path class="cls-13" d="M295.3705,317.6753c-9.1459-.9912-21.4143-3.1961-30.6383-.5073a66.6466,66.6466,0,0,0,31.3,10.0419Z" transform="translate(-1.8583)"/><path class="cls-13" d="M295.0881,317.6732c9.1595-.8558,22.2416-3.33,31.4249-.5052-8.9049,5.6707-22.0458,9.7071-32.2275,10.029Z" transform="translate(-1.8583)"/><polygon class="cls-4" points="226.832 279.799 226.832 272.978 226.832 269.449 230.974 269.449 230.974 272.978 230.974 279.799 226.832 279.799"/><polygon class="cls-4" points="359.31 284.13 359.31 267.826 352.072 267.826 352.072 284.845 359.31 284.13"/><rect class="cls-14" x="285.0583" y="268.7987" width="18.2183" height="6.8214" rx="3.4107"/><path class="cls-14" d="M260.189,308.4135c.292,12.02,16.2195,21.71,35.8367,21.71s35.5446-9.69,35.8367-21.71Z" transform="translate(-1.8583)"/><path class="cls-15" d="M273.602,325.2735a54.2582,54.2582,0,0,0,44.8815-.0163c-4.7358-7.8842-13.2115-13.2705-22.5618-13.2249C286.65,312.0775,278.2846,317.4515,273.602,325.2735Z" transform="translate(-1.8583)"/><rect class="cls-16" x="258.3307" y="304.6352" width="71.6734" height="3.7783"/></g></svg>
