<?xml version="1.0" standalone="no"?>
<!DOCTYPE svg PUBLIC "-//W3C//DTD SVG 20010904//EN"
 "http://www.w3.org/TR/2001/REC-SVG-20010904/DTD/svg10.dtd">
<svg version="1.0" xmlns="http://www.w3.org/2000/svg"
 width="361.000000pt" height="189.000000pt" viewBox="0 0 361.000000 189.000000"
 preserveAspectRatio="xMidYMid meet">

<g transform="translate(0.000000,189.000000) scale(0.100000,-0.100000)"
fill="#000000" stroke="none">
<path d="M1275 1716 c-16 -8 -155 -44 -307 -82 -153 -37 -278 -71 -278 -75 0
-6 121 20 187 42 73 23 308 79 334 79 16 0 48 10 73 21 43 21 45 22 87 4 70
-28 77 -28 29 -1 -50 28 -81 31 -125 12z"/>
<path d="M1466 1666 c10 -8 21 -12 24 -10 5 6 -21 24 -34 24 -6 0 -1 -6 10
-14z"/>
<path d="M1506 1638 c3 -5 12 -7 20 -4 8 3 14 2 14 -3 0 -4 11 -13 25 -19 32
-15 35 -15 35 -1 0 5 -4 7 -10 4 -5 -3 -10 -1 -10 5 0 6 -4 9 -9 6 -5 -4 -11
-1 -13 5 -2 6 -16 13 -31 14 -16 2 -25 -1 -21 -7z"/>
<path d="M1395 1571 c-7 -12 3 -18 160 -104 193 -104 494 -251 501 -244 3 3
-82 49 -190 101 -108 53 -196 100 -196 105 0 13 -37 33 -65 36 -34 4 -35 5
-32 16 1 6 -25 26 -58 45 -72 41 -113 56 -120 45z m75 -31 c22 -11 40 -23 40
-25 0 -5 -79 32 -89 41 -11 10 14 2 49 -16z m95 -58 c-3 -3 -11 0 -18 7 -9 10
-8 11 6 5 10 -3 15 -9 12 -12z"/>
<path d="M1951 1434 c162 -80 341 -168 399 -195 57 -28 107 -53 110 -57 7 -10
353 -181 510 -252 74 -33 138 -66 142 -73 12 -19 9 -132 -4 -145 -7 -7 -19
-12 -27 -12 -11 0 -9 5 7 16 32 22 32 114 0 143 -29 28 -65 21 -383 -66 -49
-13 -111 -28 -137 -33 -41 -7 -99 -23 -333 -90 l-60 -17 -55 30 c-53 29 -111
58 -310 155 -52 26 -100 53 -108 59 -7 7 -20 13 -29 13 -23 0 -380 209 -518
303 -66 45 -154 102 -195 127 -41 24 -106 65 -145 91 -38 25 -94 59 -124 74
l-55 27 25 15 24 14 -30 -7 c-44 -10 -95 -12 -95 -3 0 5 -28 -9 -62 -31 -36
-22 -102 -50 -153 -65 -98 -28 -116 -38 -97 -57 17 -17 15 -83 -3 -118 -23
-44 -5 -68 96 -130 49 -30 116 -72 149 -92 32 -21 63 -38 68 -38 5 0 21 -9 35
-20 40 -32 334 -208 411 -247 38 -19 85 -45 105 -58 20 -12 92 -55 161 -95 69
-40 158 -95 198 -122 39 -26 87 -57 105 -67 17 -10 67 -40 111 -66 l78 -48 77
17 c42 10 100 26 128 37 29 10 60 16 69 12 27 -10 126 19 132 39 3 12 22 23
56 32 90 25 218 63 336 99 63 19 180 53 260 76 274 78 294 85 307 112 15 29
17 98 4 132 -6 14 -28 33 -53 45 -24 11 -97 46 -163 77 -207 98 -389 188 -427
212 -21 12 -75 38 -120 57 -91 38 -346 166 -332 166 23 2 -345 170 -370 170
-5 0 123 -66 285 -146z m-1314 77 c51 -19 201 -106 278 -161 22 -16 54 -36 70
-45 34 -18 81 -48 186 -120 41 -27 79 -52 84 -54 6 -2 30 -18 55 -36 64 -46
316 -182 580 -312 124 -61 232 -117 242 -124 13 -11 17 -39 21 -131 6 -127 4
-133 -49 -144 l-29 -6 3 114 3 113 -122 60 c-67 33 -128 65 -134 72 -7 7 -51
32 -97 56 -47 24 -104 58 -128 76 -24 17 -49 31 -56 31 -7 0 -14 4 -16 8 -1 4
-75 50 -163 102 -88 51 -212 128 -275 171 -63 42 -153 98 -199 124 -45 25
-107 62 -136 81 -64 41 -214 114 -235 114 -19 1 29 29 50 30 8 0 39 -9 67 -19z
m-3 -73 c45 -22 99 -53 121 -68 22 -15 75 -46 118 -69 42 -24 77 -45 77 -47 0
-3 -13 2 -30 11 -16 9 -30 13 -30 11 0 -10 61 -37 70 -31 6 3 10 3 10 -2 0 -4
18 -17 40 -27 22 -11 40 -23 40 -28 0 -4 5 -8 12 -8 6 0 25 -10 42 -23 45 -33
204 -131 255 -157 24 -12 84 -50 135 -85 50 -34 151 -95 224 -134 73 -39 172
-94 220 -121 47 -28 90 -50 94 -50 4 0 8 -4 8 -8 0 -10 -229 -82 -261 -82 -12
0 -72 31 -134 69 -62 38 -134 81 -161 95 -52 28 -79 44 -190 114 -38 24 -137
85 -220 136 -82 50 -172 108 -200 127 -27 20 -69 48 -94 63 -39 23 -124 79
-260 170 -19 12 -53 29 -75 36 -52 17 -185 77 -185 84 0 3 26 13 58 22 31 9
82 24 112 35 70 23 103 18 204 -33z m-246 -105 c87 -36 124 -57 83 -46 -11 3
-21 3 -21 0 0 -4 17 -11 38 -16 20 -6 73 -33 117 -60 44 -28 112 -69 150 -92
39 -23 79 -52 90 -64 11 -13 45 -35 75 -51 55 -28 239 -137 335 -199 28 -18
104 -63 170 -102 66 -39 167 -98 225 -132 57 -34 116 -64 130 -67 14 -3 80 14
152 38 143 49 138 50 138 -38 0 -41 -1 -42 -46 -53 -26 -7 -49 -9 -52 -6 -3 3
1 5 8 5 7 0 11 2 8 5 -3 3 -43 -8 -89 -25 -46 -17 -103 -31 -127 -32 -38 -2
-41 -4 -26 -15 21 -15 38 -17 29 -3 -3 6 1 7 10 4 9 -4 41 5 73 19 50 22 217
48 200 32 -3 -4 -44 -15 -89 -26 -46 -10 -110 -27 -143 -36 l-58 -17 -52 29
c-28 15 -80 47 -116 70 -82 54 -434 262 -546 323 -178 98 -258 148 -309 192
-11 10 -51 34 -90 55 -89 48 -334 189 -360 209 -11 8 -17 17 -14 21 6 5 109
-48 222 -115 20 -12 37 -18 37 -13 0 6 -12 15 -27 22 -55 25 -233 135 -233
144 0 6 5 5 13 0 12 -10 57 -24 57 -18 0 2 -16 13 -36 25 -19 12 -33 25 -30
27 3 3 20 -4 39 -16 19 -11 37 -21 41 -21 9 0 -34 42 -63 62 -42 28 -6 21 87
-19z m-118 -87 c0 -8 55 -46 123 -86 67 -40 151 -92 187 -115 36 -23 81 -50
100 -60 19 -10 78 -46 130 -80 82 -53 170 -104 270 -157 36 -18 349 -206 510
-304 179 -110 182 -111 227 -94 41 14 223 60 238 60 22 -1 -45 -31 -133 -60
-135 -44 -161 -41 -261 25 -46 30 -85 55 -86 55 -2 0 -49 29 -106 65 -56 36
-106 65 -111 65 -5 0 -21 8 -36 19 -72 50 -151 96 -307 181 -93 50 -177 97
-185 104 -24 20 -213 136 -375 231 -150 88 -222 145 -210 165 8 13 25 3 25
-14z m2768 -398 c-5 -14 -21 -22 -76 -39 -54 -16 -48 -21 12 -10 56 10 58 -5
5 -31 -39 -20 -37 -22 8 -9 29 8 43 1 43 -24 0 -2 -26 -13 -57 -25 -32 -11
-71 -27 -88 -35 -16 -7 -79 -27 -140 -45 -60 -17 -168 -49 -240 -70 -207 -62
-325 -93 -331 -87 -6 6 77 47 95 47 5 0 13 5 16 10 4 6 -17 1 -47 -10 -29 -11
-56 -20 -60 -20 -5 0 -8 32 -8 70 0 39 2 70 4 70 3 0 67 18 143 39 76 22 172
47 213 56 95 22 260 65 370 98 94 28 144 34 138 15z m12 -68 c0 -5 -5 -10 -11
-10 -5 0 -7 5 -4 10 3 6 8 10 11 10 2 0 4 -4 4 -10z m-20 -75 c-19 -7 -42 -13
-50 -13 -8 0 1 6 20 13 19 7 42 13 50 13 8 0 -1 -6 -20 -13z m-33 -31 c-1 -2
-43 -14 -92 -28 -152 -42 -404 -115 -520 -150 -152 -46 -205 -60 -211 -53 -6
6 90 38 196 65 41 11 163 45 270 77 107 32 223 65 258 74 35 9 61 19 57 22 -3
4 6 4 20 1 14 -2 24 -6 22 -8z"/>
<path d="M2108 633 c-10 -2 -18 -9 -18 -14 0 -6 8 -5 20 1 11 6 20 13 20 15 0
3 -1 4 -2 4 -2 -1 -11 -3 -20 -6z"/>
<path d="M1803 563 c9 -2 23 -2 30 0 6 3 -1 5 -18 5 -16 0 -22 -2 -12 -5z"/>
<path d="M415 1260 c3 -6 21 -18 38 -26 18 -9 61 -36 97 -59 88 -57 115 -71
105 -54 -6 9 -3 11 9 6 10 -4 15 -3 11 4 -4 5 -16 7 -27 3 -13 -4 -18 -2 -14
5 4 6 -18 23 -53 41 -33 16 -81 43 -107 60 -49 31 -70 38 -59 20z"/>
<path d="M413 1233 c7 -11 124 -83 135 -83 7 0 -40 32 -102 70 -22 13 -37 19
-33 13z"/>
<path d="M570 1132 c0 -4 15 -16 33 -25 17 -8 52 -28 77 -42 l45 -27 -30 25
c-38 33 -125 81 -125 69z"/>
<path d="M704 1106 c11 -9 24 -16 30 -16 12 0 7 5 -24 19 -24 11 -24 11 -6 -3z"/>
<path d="M750 1071 c0 -4 12 -13 27 -20 28 -13 160 -96 314 -197 90 -59 149
-90 149 -79 0 3 -10 9 -23 14 -13 5 -81 48 -152 96 -136 93 -315 199 -315 186z"/>
<path d="M730 1036 c0 -2 8 -10 18 -17 15 -13 16 -12 3 4 -13 16 -21 21 -21
13z"/>
<path d="M857 949 c7 -7 15 -10 18 -7 3 3 -2 9 -12 12 -14 6 -15 5 -6 -5z"/>
<path d="M904 922 c7 -12 134 -74 144 -71 4 2 -27 21 -70 41 -44 21 -77 34
-74 30z"/>
<path d="M1104 812 c7 -11 128 -83 170 -100 51 -22 40 -4 -14 23 -29 15 -77
40 -107 56 -30 16 -52 26 -49 21z"/>
<path d="M1340 678 c0 -6 92 -68 128 -87 42 -22 22 -3 -30 30 -29 17 -63 38
-75 47 -13 8 -23 12 -23 10z"/>
<path d="M1410 661 c0 -5 26 -22 58 -40 75 -42 109 -61 153 -89 62 -38 56 -24
-7 17 -91 59 -204 121 -204 112z"/>
<path d="M1374 622 c9 -14 127 -84 133 -79 2 3 -12 14 -31 26 -20 11 -53 31
-73 43 -20 12 -33 17 -29 10z"/>
<path d="M2001 539 c-18 -6 -31 -12 -29 -14 2 -3 24 1 49 9 49 16 33 20 -20 5z"/>
<path d="M1565 514 c28 -28 125 -90 125 -81 0 3 -17 15 -37 29 -64 42 -98 62
-88 52z"/>
<path d="M1695 455 c78 -50 95 -53 145 -25 43 23 34 25 -19 4 l-39 -16 -68 41
c-91 55 -107 52 -19 -4z"/>
<path d="M1834 489 c-4 -7 -24 -9 -50 -6 l-44 4 26 -20 c20 -16 32 -18 52 -11
14 5 26 17 28 27 3 20 -2 22 -12 6z"/>
<path d="M1936 477 c-33 -11 -55 -22 -49 -24 6 -2 39 7 74 21 78 30 58 32 -25
3z"/>
<path d="M2010 470 c-8 -5 -10 -10 -5 -10 6 0 17 5 25 10 8 5 11 10 5 10 -5 0
-17 -5 -25 -10z"/>
<path d="M2880 790 c-23 -7 -23 -8 -3 -9 12 -1 25 4 28 9 3 6 5 10 3 9 -2 -1
-14 -5 -28 -9z"/>
<path d="M2790 770 c-20 -6 -21 -8 -5 -8 11 0 31 4 45 8 20 6 21 8 5 8 -11 0
-31 -4 -45 -8z"/>
<path d="M2738 753 c7 -3 16 -2 19 1 4 3 -2 6 -13 5 -11 0 -14 -3 -6 -6z"/>
<path d="M2468 663 c7 -3 16 -2 19 1 4 3 -2 6 -13 5 -11 0 -14 -3 -6 -6z"/>
<path d="M2350 643 c-36 -9 -60 -17 -55 -19 6 -2 44 5 85 15 41 10 66 19 55
19 -11 0 -49 -7 -85 -15z"/>
<path d="M2500 650 c-8 -5 -10 -10 -5 -10 6 0 17 5 25 10 8 5 11 10 5 10 -5 0
-17 -5 -25 -10z"/>
<path d="M2370 610 c-20 -6 -21 -8 -5 -8 11 0 29 3 40 8 25 11 -1 11 -35 0z"/>
<path d="M2318 593 c7 -3 16 -2 19 1 4 3 -2 6 -13 5 -11 0 -14 -3 -6 -6z"/>
<path d="M2235 572 c-47 -18 -50 -20 -43 -27 2 -3 22 4 44 14 21 10 46 21 54
24 13 5 13 5 0 5 -8 0 -33 -7 -55 -16z"/>
<path d="M2410 1136 c47 -25 95 -45 108 -45 13 -1 36 -8 52 -16 46 -24 87 -38
75 -26 -8 8 -255 111 -305 127 -8 3 23 -15 70 -40z"/>
<path d="M2690 1020 c19 -11 40 -19 45 -19 6 0 -6 8 -25 19 -19 11 -39 19 -45
19 -5 0 6 -8 25 -19z"/>
<path d="M2750 996 c0 -3 14 -12 30 -21 17 -9 30 -13 30 -11 0 3 -13 12 -30
21 -16 9 -30 13 -30 11z"/>
<path d="M2834 942 c9 -15 115 -64 128 -59 7 2 -18 18 -56 36 -74 33 -80 35
-72 23z"/>
<path d="M2790 849 c-83 -24 -94 -28 -88 -34 3 -3 27 1 54 10 27 8 72 21 99
29 30 9 40 15 25 15 -14 0 -54 -9 -90 -20z"/>
</g>
</svg>
