<?xml version="1.0" standalone="no"?>
<!DOCTYPE svg PUBLIC "-//W3C//DTD SVG 20010904//EN"
 "http://www.w3.org/TR/2001/REC-SVG-20010904/DTD/svg10.dtd">
<svg version="1.0" xmlns="http://www.w3.org/2000/svg"
 width="3004.000000pt" height="3004.000000pt" viewBox="0 0 3004.000000 3004.000000"
 preserveAspectRatio="xMidYMid meet">
<metadata>
Created by potrace 1.14, written by Peter Selinger 2001-2017
</metadata>
<g transform="translate(0.000000,3004.000000) scale(0.100000,-0.100000)"
fill="#000000" stroke="none">
<path d="M6224 19501 c-9 -8 -113 -65 -229 -125 -33 -17 -62 -33 -65 -36 -3
-3 -14 -10 -25 -16 -53 -29 -302 -163 -357 -191 -18 -10 -35 -20 -38 -23 -3
-3 -18 -12 -35 -20 -16 -8 -38 -21 -47 -29 -10 -8 -18 -11 -18 -6 0 4 -6 3
-12 -3 -15 -12 -61 -38 -178 -100 -47 -25 -98 -54 -115 -63 -16 -10 -57 -32
-90 -49 -33 -18 -69 -37 -80 -43 -11 -7 -98 -54 -193 -106 -95 -51 -175 -97
-178 -102 -3 -5 -14 -9 -25 -9 -10 0 -19 -4 -19 -8 0 -4 -12 -13 -27 -19 -16
-6 -68 -34 -118 -62 -49 -28 -115 -63 -145 -78 -30 -16 -56 -31 -58 -35 -2 -5
-8 -8 -14 -8 -5 0 -23 -9 -39 -21 -16 -11 -29 -17 -29 -12 0 4 -4 3 -8 -2 -4
-6 -18 -16 -32 -22 -14 -7 -52 -27 -85 -46 -33 -18 -89 -49 -125 -68 -36 -18
-71 -39 -78 -46 -7 -7 -18 -13 -24 -13 -5 0 -36 -16 -69 -35 -32 -19 -59 -31
-59 -27 0 4 -4 2 -8 -4 -6 -8 -137 -82 -439 -245 -124 -67 -190 -103 -233
-127 -25 -14 -58 -32 -75 -40 -16 -8 -42 -23 -56 -33 -14 -10 -29 -16 -33 -12
-3 3 -6 1 -6 -5 0 -7 -4 -12 -10 -12 -5 0 -76 -37 -157 -81 -81 -45 -177 -98
-213 -117 -36 -19 -79 -43 -96 -53 -18 -10 -76 -41 -130 -70 -55 -29 -100 -56
-102 -61 -2 -4 -12 -8 -22 -8 -10 0 -21 -4 -24 -9 -4 -5 -27 -19 -54 -32 -26
-12 -49 -25 -52 -28 -3 -3 -36 -22 -75 -41 -38 -19 -72 -38 -75 -41 -3 -3 -50
-29 -105 -59 -224 -119 -250 -134 -253 -142 -2 -4 -11 -8 -20 -8 -9 0 -28 -9
-42 -20 -14 -11 -32 -20 -42 -20 -9 0 -18 -4 -20 -9 -3 -9 -32 -25 -218 -124
-52 -28 -97 -54 -98 -59 -2 -4 -8 -6 -13 -2 -5 3 -9 1 -9 -4 0 -6 -12 -13 -27
-17 -15 -3 -30 -10 -33 -15 -3 -4 -36 -24 -75 -44 -38 -20 -99 -52 -135 -72
-36 -20 -96 -53 -135 -73 -38 -21 -88 -48 -110 -61 -22 -12 -74 -41 -115 -62
-195 -105 -226 -129 -268 -210 l-27 -53 -3 -954 c-3 -1042 -4 -1007 55 -1098
15 -24 31 -43 36 -43 4 0 19 -10 32 -22 14 -13 66 -45 117 -71 51 -26 116 -61
143 -78 28 -16 61 -34 74 -40 13 -5 37 -19 52 -30 16 -11 29 -17 29 -13 0 4 8
1 18 -7 9 -8 35 -24 57 -36 22 -11 60 -33 85 -47 25 -14 70 -38 100 -53 30
-16 57 -30 60 -33 3 -3 23 -14 45 -26 45 -23 183 -98 235 -127 35 -20 98 -55
180 -100 25 -14 70 -38 100 -53 30 -16 57 -31 60 -34 3 -3 28 -17 55 -31 46
-23 83 -44 215 -117 103 -57 157 -86 190 -104 19 -10 42 -22 50 -28 15 -9 158
-87 300 -163 41 -22 80 -43 85 -47 6 -4 55 -31 110 -60 55 -29 105 -56 110
-61 6 -4 42 -24 80 -45 84 -44 146 -78 200 -108 22 -12 76 -42 120 -66 44 -24
102 -56 128 -72 26 -15 55 -28 63 -28 8 0 17 -7 20 -15 4 -8 14 -15 23 -15 9
0 21 -4 26 -9 15 -14 285 -161 295 -161 6 0 10 -4 10 -10 0 -5 5 -10 11 -10 6
0 52 -23 102 -51 51 -29 112 -63 137 -76 25 -14 51 -30 58 -35 6 -6 12 -8 12
-4 0 3 21 -8 47 -24 26 -17 53 -30 60 -30 7 0 13 -4 13 -10 0 -5 4 -10 10 -10
5 0 71 -34 147 -76 76 -42 167 -93 203 -112 36 -20 83 -46 105 -58 36 -21 85
-47 215 -115 25 -13 47 -27 48 -31 2 -5 7 -8 12 -8 7 0 175 -90 325 -175 28
-15 88 -48 135 -73 47 -24 96 -52 110 -60 14 -9 47 -28 75 -42 27 -15 119 -65
203 -111 84 -46 174 -96 201 -110 26 -14 78 -43 117 -64 68 -38 148 -81 254
-138 30 -16 60 -33 67 -38 6 -6 13 -6 15 -2 2 4 4 544 3 1198 -1 1156 -1 1192
-20 1244 -23 63 -97 145 -160 176 -22 11 -73 39 -113 62 -41 24 -75 43 -77 43
-1 0 -62 34 -135 75 -73 41 -136 75 -141 75 -5 0 -9 5 -9 11 0 5 -4 7 -10 4
-5 -3 -10 -2 -10 3 0 5 -8 12 -17 15 -10 3 -49 23 -88 45 -38 21 -97 54 -130
72 -33 18 -68 40 -77 48 -10 8 -18 11 -18 7 0 -4 -8 -2 -17 7 -10 8 -39 25
-65 39 -27 13 -48 27 -48 31 0 5 -9 8 -19 8 -11 0 -22 4 -25 9 -3 5 -28 20
-54 34 -26 14 -66 35 -88 48 -21 12 -68 38 -104 57 -36 20 -67 38 -70 41 -3 3
-25 16 -50 29 -47 23 -75 38 -315 174 -220 124 -243 137 -325 181 -41 22 -76
44 -78 49 -2 4 -12 8 -23 8 -10 0 -19 3 -19 8 0 4 -10 12 -23 18 -20 10 -97
52 -159 86 -13 7 -25 15 -28 18 -3 3 -21 13 -40 22 -19 10 -62 33 -95 52 -33
19 -76 43 -95 54 -55 29 -141 77 -182 101 -66 37 -101 57 -163 91 -33 18 -76
42 -95 53 -106 60 -270 150 -302 167 -16 7 -28 16 -28 19 0 7 46 34 115 69 28
14 52 29 55 32 3 4 25 16 50 29 25 12 77 40 115 62 39 22 87 47 108 56 20 9
37 20 37 25 0 4 6 8 13 8 7 0 29 11 50 25 20 14 37 23 37 20 0 -2 28 12 63 33
34 21 96 55 137 77 41 21 77 42 78 47 2 4 8 8 14 8 6 0 33 13 59 30 27 16 49
26 49 22 0 -4 4 -2 8 4 4 6 27 20 52 33 25 12 61 32 80 43 19 11 62 35 95 53
33 18 80 43 105 57 158 88 251 138 257 138 3 0 14 6 22 14 9 7 57 35 106 61
112 60 172 93 210 115 17 9 57 32 90 50 33 18 85 46 115 63 30 16 89 48 130
70 41 22 80 43 85 47 6 4 39 23 75 42 190 102 226 122 235 128 12 9 69 40 190
105 50 26 97 54 106 61 8 8 23 14 31 14 9 0 18 3 20 8 2 4 19 15 38 26 150 79
195 104 265 144 44 25 82 50 83 54 2 4 8 8 13 8 28 0 100 111 115 177 8 34 11
2411 3 2424 -3 5 -9 5 -15 0z"/>
<path d="M23799 19509 c-5 -17 -3 -2389 2 -2404 24 -69 49 -115 82 -150 37
-39 50 -48 133 -90 21 -11 41 -22 44 -26 3 -3 21 -13 40 -23 64 -32 167 -91
184 -105 9 -7 16 -10 16 -6 0 4 6 3 13 -3 6 -5 29 -19 50 -31 20 -12 54 -31
75 -42 41 -24 67 -39 232 -129 63 -35 118 -68 121 -73 3 -4 13 -9 21 -11 9 -1
22 -7 29 -13 8 -6 32 -19 54 -30 22 -11 88 -48 146 -81 58 -34 111 -62 118
-62 6 0 11 -4 11 -9 0 -5 8 -11 18 -15 9 -3 40 -18 67 -34 28 -15 77 -43 110
-62 33 -18 76 -42 95 -53 19 -11 64 -36 100 -55 36 -19 77 -43 91 -53 14 -10
29 -16 33 -12 3 3 6 2 6 -4 0 -6 12 -16 28 -22 32 -13 85 -43 107 -61 8 -7 15
-9 15 -4 0 5 4 5 8 -1 8 -11 33 -26 107 -64 28 -14 52 -28 55 -31 3 -3 23 -14
45 -25 22 -11 42 -22 45 -25 3 -3 23 -15 45 -27 48 -25 47 -25 400 -223 154
-86 287 -160 295 -163 8 -4 29 -15 45 -25 29 -18 50 -30 195 -110 36 -20 67
-40 68 -44 2 -4 12 -8 22 -8 10 0 22 -5 25 -11 4 -5 31 -22 61 -36 30 -14 53
-30 51 -36 -1 -5 -39 -29 -82 -52 -82 -43 -102 -54 -286 -156 -58 -32 -111
-59 -117 -59 -7 0 -12 -4 -12 -8 0 -7 -44 -34 -60 -36 -3 -1 -21 -11 -41 -24
-20 -12 -41 -22 -47 -22 -6 0 -12 -3 -14 -7 -1 -5 -28 -21 -58 -37 -62 -33
-64 -34 -310 -168 -30 -17 -98 -55 -151 -84 -54 -30 -102 -54 -108 -54 -6 0
-11 -3 -11 -7 0 -5 -35 -26 -78 -48 -42 -22 -79 -42 -82 -45 -3 -3 -27 -16
-55 -30 -27 -14 -52 -27 -55 -30 -3 -3 -27 -17 -55 -32 -55 -28 -112 -60 -190
-103 -27 -16 -72 -40 -100 -54 -27 -14 -52 -28 -55 -31 -6 -6 -8 -7 -145 -80
-55 -29 -104 -56 -110 -60 -5 -4 -55 -31 -110 -60 -55 -29 -107 -58 -115 -64
-8 -6 -33 -20 -55 -31 -22 -11 -42 -22 -45 -25 -3 -3 -43 -25 -90 -49 -47 -24
-92 -49 -100 -55 -8 -6 -37 -22 -65 -36 -27 -13 -52 -27 -55 -30 -6 -6 -81
-46 -174 -94 -33 -17 -63 -34 -66 -37 -3 -4 -36 -23 -75 -43 -174 -90 -241
-134 -276 -184 -31 -45 -63 -128 -54 -142 3 -5 3 -10 -2 -10 -4 0 -8 -538 -8
-1195 0 -858 3 -1195 11 -1195 6 0 31 11 55 24 24 14 64 35 89 48 25 13 47 25
50 28 3 3 19 12 35 21 17 8 62 32 100 53 39 21 93 51 120 66 28 15 77 42 110
60 33 18 85 46 115 63 30 16 73 40 96 53 22 13 44 21 47 17 4 -3 7 -2 7 3 0 5
17 18 38 29 20 10 49 28 65 38 15 10 27 15 27 11 0 -4 8 0 18 8 9 9 55 35 102
59 47 24 87 46 90 49 3 3 39 23 80 44 41 22 87 48 103 58 15 11 27 17 27 14 0
-4 18 5 39 18 22 14 79 46 128 72 48 26 106 56 128 68 22 11 42 23 45 26 3 3
19 12 35 21 80 39 250 134 253 141 2 4 12 8 22 8 10 0 21 4 24 9 3 5 36 25 73
44 38 19 88 46 113 59 25 12 47 25 50 29 3 3 25 15 50 28 60 31 148 79 188
103 17 11 32 16 32 11 0 -4 4 -3 8 3 4 6 34 25 67 43 33 18 66 38 73 43 6 6
12 7 12 3 0 -5 9 0 20 10 11 10 20 14 20 9 0 -5 4 -4 8 2 8 13 377 214 392
214 5 0 10 4 10 9 0 5 9 12 19 16 11 3 91 45 178 93 87 48 172 94 188 102 17
8 32 17 35 20 3 3 34 21 70 39 36 18 81 42 100 53 19 11 73 41 120 66 47 25
97 53 111 63 14 10 28 16 31 13 3 -2 11 2 18 11 7 8 16 15 20 15 7 0 50 23
230 123 30 17 87 47 125 66 39 20 72 39 75 42 3 3 35 21 73 40 37 18 67 37 67
42 0 4 5 5 10 2 6 -3 10 -1 10 6 0 7 3 9 6 6 4 -4 19 2 33 11 14 10 55 33 91
52 36 18 77 42 93 52 15 11 27 16 27 12 0 -4 8 -1 18 7 20 17 33 24 160 91 53
28 118 64 144 79 27 16 48 25 48 21 0 -4 4 -2 8 4 4 6 57 37 117 69 61 32 112
62 113 67 2 4 10 8 18 8 14 0 26 6 94 49 14 8 27 16 30 16 3 0 31 15 62 33 32
18 61 32 65 33 5 0 15 6 23 13 8 7 44 27 80 46 36 18 67 36 70 40 3 3 21 12
40 20 19 8 37 17 40 21 3 3 23 15 45 27 59 30 108 81 140 147 19 39 20 69 23
995 3 979 3 991 -35 1065 -21 40 -95 111 -141 133 -20 11 -57 30 -82 44 -25
13 -81 44 -125 68 -44 24 -114 62 -155 86 -42 23 -107 59 -145 79 -39 21 -90
49 -115 63 -25 13 -70 38 -100 54 -30 17 -80 44 -110 61 -30 16 -64 35 -75 41
-11 6 -23 16 -27 21 -4 6 -8 7 -8 3 0 -4 -43 17 -96 47 -53 30 -98 55 -100 55
-1 0 -29 15 -61 34 -32 18 -98 55 -148 81 -49 27 -106 57 -125 68 -19 11 -64
36 -100 55 -36 19 -91 50 -123 68 -32 19 -61 34 -63 34 -3 0 -20 10 -37 22
-18 13 -34 22 -37 21 -4 -1 -131 67 -200 107 -8 5 -46 26 -85 46 -38 20 -74
40 -80 44 -9 8 -85 49 -199 109 -91 48 -101 54 -104 63 -2 4 -10 8 -18 8 -8 0
-32 11 -54 25 -22 14 -44 25 -50 25 -5 0 -10 5 -10 12 0 6 -3 8 -7 5 -3 -4
-11 -3 -17 2 -12 10 -37 24 -161 91 -44 24 -89 48 -100 54 -11 6 -22 13 -25
16 -7 7 -64 32 -69 30 -2 -1 -7 3 -10 8 -3 5 -40 27 -81 49 -99 52 -122 65
-142 82 -10 8 -18 11 -18 7 0 -4 -13 2 -29 13 -16 12 -31 21 -34 21 -3 0 -56
28 -118 63 -63 35 -150 83 -194 107 -44 24 -100 55 -125 68 -25 13 -63 34 -85
45 -22 12 -42 24 -45 28 -3 4 -21 14 -40 22 -19 9 -64 32 -100 53 -36 20 -103
57 -150 82 -47 25 -98 54 -115 64 -16 10 -55 30 -85 45 -30 15 -57 29 -60 33
-3 3 -23 14 -45 26 -22 11 -56 30 -76 42 -21 11 -65 35 -99 54 -104 55 -291
158 -350 191 -19 11 -64 36 -100 55 -36 19 -99 53 -140 77 -41 23 -82 45 -90
48 -8 4 -33 18 -55 30 -22 13 -69 38 -105 57 -36 19 -67 37 -70 40 -3 3 -39
23 -80 44 -41 22 -78 43 -81 48 -3 6 -8 9 -10 8 -7 -3 -44 13 -59 25 -8 7 -64
38 -125 70 -60 32 -116 62 -122 68 -7 5 -14 8 -14 6z"/>
<path d="M18122 19012 c-20 -3 -23 -8 -17 -30 7 -30 67 -231 91 -302 8 -25 16
-52 18 -60 2 -8 10 -35 17 -60 7 -25 13 -48 15 -52 1 -5 3 -10 4 -13 1 -3 3
-8 5 -12 1 -5 4 -15 7 -23 3 -8 15 -48 27 -88 11 -40 30 -105 41 -145 12 -39
25 -80 30 -89 6 -10 10 -27 10 -37 0 -11 4 -30 9 -43 12 -30 61 -189 65 -208
1 -8 15 -55 31 -105 15 -49 31 -103 35 -120 5 -16 22 -74 38 -127 16 -53 27
-99 24 -102 -3 -4 0 -6 6 -6 7 0 12 -7 12 -15 0 -16 42 -163 60 -210 6 -16 11
-31 10 -33 -2 -2 17 -68 46 -163 8 -25 16 -55 19 -67 2 -12 7 -27 10 -32 3 -5
8 -18 10 -27 2 -10 29 -101 60 -203 31 -102 57 -192 59 -200 2 -9 17 -56 32
-105 15 -50 29 -97 31 -105 1 -8 21 -73 43 -145 22 -71 42 -139 45 -150 6 -26
35 -123 46 -155 15 -44 60 -199 64 -219 2 -11 9 -29 15 -40 6 -12 8 -21 6 -21
-3 0 2 -19 10 -42 9 -24 17 -50 19 -58 2 -8 17 -62 35 -120 41 -137 81 -272
84 -285 2 -5 6 -17 9 -25 5 -15 47 -156 52 -175 1 -5 4 -17 7 -25 3 -8 10 -31
16 -50 5 -19 20 -68 32 -108 12 -40 23 -78 24 -85 1 -7 4 -16 8 -22 4 -8 16
-52 23 -85 0 -3 8 -27 17 -55 9 -27 26 -84 38 -125 12 -41 25 -86 30 -100 8
-24 41 -134 82 -275 11 -38 23 -77 26 -85 3 -8 6 -19 7 -25 7 -31 47 -163 55
-180 5 -11 11 -31 13 -45 3 -14 19 -72 37 -130 18 -58 33 -109 34 -115 2 -5
11 -37 21 -70 11 -33 20 -63 21 -67 1 -5 3 -10 4 -13 1 -3 3 -8 4 -12 2 -5 8
-28 16 -53 7 -25 14 -50 16 -56 1 -6 14 -51 29 -100 34 -112 80 -264 112 -374
14 -47 32 -107 41 -135 9 -27 17 -53 18 -57 1 -5 3 -11 4 -15 1 -5 2 -12 1
-17 -1 -4 4 -14 10 -22 6 -8 8 -14 5 -14 -4 0 -2 -8 3 -18 6 -11 12 -30 15
-43 2 -13 11 -43 20 -66 8 -24 13 -43 11 -43 -2 0 3 -17 12 -37 8 -21 15 -40
15 -43 1 -8 4 -21 16 -60 5 -19 20 -69 32 -110 12 -41 25 -85 31 -98 5 -13 9
-29 9 -37 0 -7 5 -26 12 -42 6 -15 12 -34 14 -41 1 -7 19 -68 39 -135 21 -66
38 -126 40 -132 6 -30 18 -71 24 -80 3 -5 7 -16 8 -22 2 -7 4 -19 6 -25 6 -30
30 -78 38 -78 5 0 9 -5 9 -11 0 -14 89 -99 104 -99 6 0 25 -8 41 -17 33 -17
166 -23 200 -8 11 4 22 9 25 10 25 6 82 45 110 75 40 43 61 68 60 72 -1 2 1
10 4 18 4 8 22 69 42 135 20 66 45 149 55 185 11 36 21 70 23 75 4 18 37 130
42 145 3 8 5 16 6 17 0 1 7 24 15 50 8 27 19 62 23 78 5 17 29 100 55 185 25
85 47 160 49 165 1 6 4 15 8 20 7 12 23 87 20 98 -1 4 3 7 10 7 6 0 9 3 5 6
-3 3 -1 18 5 33 5 14 11 33 13 41 2 8 8 30 14 48 5 17 7 32 4 32 -3 0 -1 6 5
13 5 6 33 90 61 185 174 588 239 809 246 835 2 9 6 21 9 25 3 5 7 19 10 33 5
23 31 112 96 329 18 58 33 112 35 120 2 8 8 27 13 41 6 15 8 30 5 33 -4 3 -2
6 3 6 5 0 10 9 11 19 1 11 9 41 18 68 9 26 18 55 20 63 2 8 4 16 5 18 3 2 3 2
14 52 5 19 13 41 18 48 6 6 8 12 5 12 -3 0 3 25 13 56 11 31 17 60 14 65 -3 5
0 9 5 9 6 0 10 3 10 8 -1 4 0 9 1 12 1 3 3 12 5 20 2 8 18 62 35 120 18 58 33
112 35 120 2 8 29 98 60 200 57 185 84 276 88 295 2 6 6 16 10 23 5 6 6 12 3
12 -3 0 4 26 15 57 11 32 21 66 24 78 2 11 16 58 30 105 15 47 40 130 56 185
16 55 31 105 33 110 1 6 8 30 15 55 6 25 16 54 20 65 7 16 29 88 36 115 1 3 5
21 9 40 5 19 13 41 18 48 6 6 8 12 5 12 -3 0 3 25 13 55 10 30 17 55 14 55 -3
0 0 9 6 19 5 11 16 43 24 73 8 29 29 98 46 153 17 55 32 107 34 115 11 43 38
138 46 155 5 11 16 47 25 80 9 33 29 103 45 155 16 52 40 133 54 180 14 47 44
148 67 225 23 76 42 144 44 150 1 5 5 17 8 25 3 8 10 31 16 50 5 19 21 73 35
120 83 279 118 397 121 412 2 9 8 26 14 37 6 11 11 29 11 40 0 12 4 29 10 39
5 9 23 64 40 122 17 58 33 111 35 118 3 7 4 13 4 15 -1 1 5 18 13 37 8 19 15
38 16 43 1 13 43 151 53 175 14 36 11 61 -8 61 -10 0 -56 0 -103 0 -83 0 -105
-1 -165 -13 -40 -7 -139 -38 -145 -45 -3 -3 -14 -8 -25 -9 -11 -2 -27 -10 -36
-18 -8 -8 -19 -14 -23 -14 -4 0 -35 -19 -69 -42 -71 -48 -158 -134 -202 -199
-16 -24 -34 -47 -38 -50 -5 -3 -9 -10 -9 -15 0 -5 -10 -27 -21 -49 -12 -22
-22 -42 -22 -45 -1 -3 -12 -39 -25 -80 -13 -41 -25 -77 -25 -80 -1 -3 -7 -25
-14 -50 -7 -25 -14 -49 -16 -55 -1 -5 -5 -17 -8 -25 -8 -21 -31 -93 -33 -105
-1 -5 -10 -37 -20 -70 -10 -33 -19 -64 -20 -70 -6 -22 -56 -191 -61 -205 -4
-8 -5 -19 -4 -24 1 -4 -3 -14 -8 -20 -6 -7 -13 -23 -15 -37 -3 -13 -5 -25 -7
-26 -1 -2 -2 -6 -3 -10 0 -5 -7 -26 -13 -48 -7 -22 -26 -87 -43 -145 -17 -58
-44 -148 -60 -200 -36 -118 -63 -214 -62 -217 1 -2 -5 -18 -14 -38 -8 -19 -12
-35 -9 -35 3 0 -1 -12 -9 -28 -8 -15 -16 -41 -19 -57 -5 -27 -40 -148 -54
-185 -7 -18 -10 -28 -17 -55 -2 -11 -19 -65 -36 -120 -17 -55 -32 -107 -34
-115 -3 -13 -43 -145 -107 -360 -11 -36 -29 -96 -40 -135 -11 -38 -22 -77 -25
-85 -3 -8 -5 -16 -5 -17 0 -2 -6 -21 -14 -43 -8 -22 -14 -42 -14 -45 0 -3 -8
-31 -18 -63 -9 -31 -17 -59 -18 -62 -2 -10 -47 -157 -71 -236 -14 -44 -26 -87
-27 -95 -2 -8 -6 -19 -10 -26 -4 -6 -8 -23 -9 -37 -1 -14 -7 -26 -12 -26 -5 0
-7 -3 -4 -6 4 -3 0 -24 -7 -47 -8 -23 -26 -82 -40 -132 -15 -49 -38 -125 -52
-168 -14 -43 -26 -83 -27 -90 -1 -7 -10 -39 -20 -72 -10 -33 -20 -67 -21 -75
-2 -8 -10 -36 -18 -62 -8 -27 -12 -48 -9 -48 4 0 2 -4 -5 -8 -6 -4 -14 -19
-17 -32 -2 -14 -17 -65 -31 -115 -15 -49 -33 -111 -41 -137 -8 -27 -21 -72
-30 -100 -8 -29 -17 -60 -19 -68 -2 -8 -4 -16 -5 -17 -2 -2 -4 -7 -5 -13 -1
-5 -3 -11 -5 -12 -1 -2 -3 -10 -5 -18 -8 -34 -94 -321 -99 -328 -3 -5 -7 -19
-10 -33 -3 -13 -14 -55 -26 -94 -12 -38 -23 -77 -25 -85 -18 -65 -57 -198 -62
-210 -3 -8 -7 -19 -8 -25 -2 -5 -12 -41 -25 -80 -12 -38 -23 -77 -25 -85 -2
-8 -11 -40 -20 -70 -9 -30 -17 -60 -19 -67 -1 -7 -5 -16 -9 -19 -4 -4 -7 -18
-7 -30 0 -13 -5 -26 -10 -29 -6 -4 -8 -11 -5 -16 4 -5 2 -16 -2 -24 -7 -11
-18 15 -41 88 -18 57 -32 110 -32 118 0 8 -5 20 -12 27 -7 7 -9 12 -5 12 4 0
0 17 -7 38 -8 20 -24 71 -36 112 -12 41 -33 108 -46 149 -13 40 -23 76 -22 80
1 3 -2 13 -5 21 -8 17 -76 245 -82 273 -2 10 -9 32 -14 50 -20 60 -48 152 -64
207 -9 30 -23 78 -32 106 -8 28 -17 60 -20 72 -2 11 -8 29 -14 40 -5 10 -12
29 -14 43 -4 29 -43 161 -61 209 -8 19 -14 40 -15 45 -1 6 -8 35 -17 65 -9 30
-17 60 -19 65 -1 6 -4 17 -7 25 -10 26 -52 165 -54 178 -1 6 -14 51 -29 100
-15 48 -31 103 -37 122 -6 19 -13 42 -16 50 -3 8 -7 24 -9 35 -7 31 -9 38 -20
65 -6 14 -14 41 -18 60 -4 19 -10 40 -13 45 -4 6 -7 17 -9 25 -2 15 -20 81
-31 110 -3 8 -6 20 -8 25 -36 126 -48 162 -55 171 -5 6 -7 13 -4 16 3 2 -7 40
-21 83 -14 43 -26 86 -27 97 -1 10 -4 18 -7 18 -4 0 -7 6 -7 13 0 6 -15 59
-33 117 -17 58 -33 112 -35 120 -2 8 -4 15 -5 15 -1 0 -3 7 -5 16 -1 8 -15 53
-29 100 -14 46 -28 93 -31 104 -3 11 -16 56 -29 100 -34 110 -97 318 -100 330
-9 34 -39 134 -47 155 -5 14 -10 35 -12 47 -2 12 -6 26 -10 29 -4 4 -7 18 -7
30 0 13 -4 25 -9 28 -5 3 -11 18 -14 33 -2 16 -17 69 -32 118 -15 50 -28 97
-30 105 -2 8 -4 16 -5 18 -2 1 -3 5 -4 10 -1 4 -10 34 -20 67 -10 33 -20 68
-21 78 -2 9 -7 22 -10 27 -3 5 -8 18 -10 27 -6 30 -47 167 -55 188 -8 18 -17
53 -21 80 0 6 -7 26 -15 45 -7 19 -19 55 -25 80 -15 53 -14 51 -21 70 -3 8
-12 38 -19 65 -6 28 -15 55 -18 60 -3 6 -14 39 -24 75 -20 72 -18 68 -37 130
-8 25 -14 47 -15 50 -1 3 -7 23 -13 45 -6 22 -11 42 -11 45 -1 8 -51 153 -64
182 -6 16 -15 28 -19 28 -5 0 -8 9 -8 20 0 11 -4 20 -9 20 -5 0 -15 14 -22 32
-15 38 -182 206 -224 228 -17 8 -32 17 -35 20 -3 3 -18 12 -35 20 -16 8 -32
17 -35 20 -6 7 -122 46 -179 60 -43 11 -224 19 -269 12z"/>
<path d="M12530 18976 c0 -18 3 -36 7 -40 4 -3 8 -14 9 -23 6 -37 16 -67 45
-130 55 -120 137 -224 247 -310 50 -40 199 -119 242 -129 59 -13 107 -25 130
-30 30 -7 4345 -11 4382 -4 l26 5 -23 88 c-13 48 -29 95 -36 104 -8 9 -13 18
-11 20 5 7 -49 102 -91 158 -64 84 -196 203 -211 188 -3 -3 -6 -2 -6 4 0 10
-115 73 -142 77 -7 1 -18 4 -23 8 -6 4 -42 14 -80 24 -65 16 -226 17 -2267 20
l-2198 2 0 -32z"/>
<path d="M7428 18897 c-11 -4 -24 -5 -28 -2 -5 3 -11 1 -15 -5 -4 -6 -10 -8
-15 -5 -11 7 -150 -39 -212 -70 -62 -31 -152 -97 -209 -154 -39 -39 -139 -173
-139 -186 0 -3 -11 -28 -24 -57 -14 -29 -28 -67 -32 -83 -4 -17 -9 -34 -13
-40 -3 -5 -6 -21 -7 -35 -1 -14 -3 -32 -5 -40 -4 -13 263 -15 2171 -16 1196
-1 2189 -5 2205 -9 17 -3 34 -10 40 -16 5 -5 16 -9 26 -9 19 0 119 -90 119
-108 0 -6 4 -12 8 -12 7 0 28 -47 40 -90 2 -8 5 -1331 6 -2940 1 -2894 1
-2926 -19 -2980 -21 -57 -111 -160 -140 -160 -8 0 -15 -4 -15 -9 0 -33 -80
-35 -1915 -37 -995 -1 -1828 -5 -1850 -8 -61 -8 -163 -40 -229 -72 -89 -44
-96 -48 -96 -56 0 -5 -6 -8 -13 -8 -19 0 -166 -145 -206 -204 -31 -44 -91
-157 -97 -181 -1 -5 -11 -44 -22 -85 -10 -41 -18 -77 -17 -80 5 -8 4555 -4
4614 4 77 11 88 13 145 33 28 9 53 18 56 18 3 1 23 10 45 20 111 53 251 173
311 265 16 25 31 47 34 50 13 13 40 70 33 70 -4 0 -3 4 3 8 11 7 42 84 49 121
2 13 7 32 11 44 4 12 9 35 11 52 8 57 8 6310 0 6365 -4 30 -9 66 -11 80 -7 51
-65 199 -86 220 -3 3 -12 19 -20 35 -8 17 -23 37 -32 46 -10 9 -18 20 -18 24
0 17 -132 136 -197 178 -103 67 -229 114 -333 122 -25 2 -45 5 -45 6 0 6
-3850 3 -3867 -4z"/>
<path d="M14724 17868 c1 -21 -2 -38 -6 -38 -5 0 -4 -8 1 -18 6 -11 6 -24 0
-35 -6 -9 -6 -17 -2 -17 4 0 8 -11 8 -25 0 -14 -4 -25 -8 -25 -4 0 -4 -8 2
-17 6 -11 6 -24 0 -35 -5 -10 -6 -18 -2 -18 4 0 8 -11 8 -25 0 -14 -4 -25 -8
-25 -5 0 -5 -5 -2 -11 11 -16 12 -69 3 -69 -5 0 -4 -8 1 -18 6 -11 6 -24 0
-35 -6 -9 -6 -17 -2 -17 4 0 8 -11 8 -25 0 -14 -4 -25 -8 -25 -4 0 -3 -8 2
-18 6 -11 6 -24 0 -35 -6 -9 -6 -17 -2 -17 4 0 8 -11 8 -25 0 -14 -2 -25 -5
-25 -7 0 -4 -70 4 -77 3 -3 1 -14 -5 -24 -5 -11 -6 -19 -2 -19 4 0 8 -11 8
-25 0 -14 -3 -25 -7 -25 -4 0 -3 -13 2 -30 5 -19 5 -30 -1 -30 -6 0 -6 -6 0
-18 5 -10 6 -24 1 -32 -5 -8 -6 -21 -2 -29 9 -20 8 -53 -1 -68 -4 -6 -3 -14 2
-18 7 -3 7 -15 1 -30 -6 -15 -6 -27 1 -30 5 -4 6 -11 3 -17 -8 -13 -9 -117 -1
-125 4 -3 2 -14 -4 -24 -6 -12 -6 -19 0 -19 6 0 6 -11 1 -30 -5 -16 -6 -30 -2
-30 4 0 7 -11 7 -25 0 -14 -3 -25 -7 -25 -4 0 -3 -13 2 -30 5 -19 5 -30 -1
-30 -6 0 -6 -6 0 -18 6 -11 6 -24 0 -35 -7 -11 -7 -17 0 -17 6 0 6 -11 1 -30
-5 -16 -6 -30 -2 -30 4 0 7 -11 7 -25 0 -14 -3 -25 -7 -25 -4 0 -3 -13 2 -30
5 -19 5 -30 -1 -30 -6 0 -6 -6 0 -18 6 -11 6 -24 0 -35 -7 -11 -7 -17 0 -17 6
0 6 -11 1 -30 -5 -16 -6 -30 -2 -30 4 0 7 -11 7 -25 0 -14 -3 -25 -7 -25 -4 0
-5 -7 -2 -15 9 -23 10 -115 1 -115 -4 0 -3 -8 2 -18 6 -11 6 -24 0 -35 -6 -9
-6 -17 -2 -17 4 0 8 -11 8 -25 0 -14 -4 -25 -8 -25 -4 0 -3 -8 2 -18 6 -11 6
-24 0 -35 -6 -9 -6 -17 -2 -17 4 0 8 -11 8 -25 0 -14 -4 -25 -8 -25 -5 0 -5
-5 -2 -11 11 -16 12 -69 3 -69 -5 0 -4 -8 1 -18 6 -11 6 -24 0 -35 -6 -9 -6
-17 -2 -17 4 0 8 -11 8 -25 0 -14 -4 -25 -8 -25 -4 0 -3 -8 2 -18 6 -11 6 -24
0 -35 -6 -9 -6 -17 -2 -17 4 0 8 -11 8 -25 0 -14 -2 -25 -5 -25 -3 0 -5 -18
-5 -40 0 -22 2 -40 5 -40 3 0 5 -11 5 -25 0 -14 -4 -25 -8 -25 -4 0 -3 -8 2
-18 5 -10 6 -24 1 -32 -5 -8 -5 -21 0 -30 5 -9 4 -23 -1 -33 -7 -11 -7 -17 0
-17 6 0 6 -11 1 -30 -5 -16 -6 -30 -2 -30 4 0 7 -11 7 -25 0 -14 -4 -25 -8
-25 -4 0 -3 -8 2 -18 5 -10 6 -24 1 -32 -5 -8 -5 -21 0 -30 5 -9 4 -23 -1 -33
-7 -11 -7 -17 0 -17 6 0 6 -11 1 -30 -5 -16 -6 -30 -2 -30 4 0 7 -11 7 -25 0
-14 -4 -25 -8 -25 -4 0 -3 -8 2 -18 5 -10 6 -24 1 -32 -5 -8 -5 -21 0 -30 5
-9 4 -23 -1 -33 -7 -11 -7 -17 0 -17 6 0 6 -11 1 -30 -5 -16 -6 -30 -2 -30 4
0 7 -11 7 -25 0 -14 -4 -25 -8 -25 -4 0 -3 -8 2 -18 5 -10 6 -24 1 -32 -5 -8
-5 -21 0 -30 5 -9 4 -23 -1 -33 -7 -11 -7 -17 0 -17 6 0 6 -11 1 -30 -5 -16
-6 -30 -2 -30 4 0 7 -11 7 -25 0 -14 -4 -25 -8 -25 -4 0 -4 -8 1 -17 5 -10 6
-31 2 -48 -3 -16 -3 -40 1 -52 5 -13 4 -25 -2 -28 -5 -4 -7 -11 -3 -16 9 -16
11 -109 1 -109 -4 0 -3 -8 2 -18 6 -11 6 -24 0 -35 -6 -9 -6 -17 -2 -17 4 0 8
-11 8 -25 0 -14 -4 -25 -8 -25 -4 0 -3 -8 2 -18 6 -11 6 -24 0 -35 -6 -9 -6
-17 -2 -17 4 0 8 -11 8 -25 0 -14 -4 -25 -8 -25 -5 0 -5 -5 -2 -11 11 -16 12
-69 3 -69 -5 0 -4 -8 1 -18 6 -11 6 -24 0 -35 -6 -9 -6 -17 -2 -17 4 0 8 -11
8 -25 0 -14 -4 -25 -8 -25 -4 0 -3 -8 2 -18 6 -11 6 -24 0 -35 -6 -9 -6 -17
-2 -17 4 0 8 -11 8 -25 0 -14 -2 -25 -5 -25 -7 0 -4 -70 4 -77 3 -3 1 -14 -5
-24 -5 -11 -6 -19 -2 -19 4 0 8 -11 8 -25 0 -14 -3 -25 -7 -25 -4 0 -3 -13 2
-30 5 -19 5 -30 -1 -30 -6 0 -6 -6 0 -18 6 -10 6 -24 1 -32 -5 -8 -6 -18 -3
-23 10 -16 9 -67 -1 -67 -7 0 -8 -3 -1 -8 12 -8 14 -112 2 -112 -5 0 -5 -5 -1
-12 4 -6 8 -33 10 -58 3 -53 12 -119 19 -129 2 -4 6 -19 9 -34 7 -38 80 -190
113 -234 44 -59 45 -61 95 -111 62 -61 66 -65 132 -107 86 -55 162 -86 269
-110 l57 -13 0 2532 c0 1739 -4 2545 -11 2576 -6 25 -12 54 -15 64 -10 53 -28
94 -98 233 -6 13 -14 23 -18 23 -5 0 -8 5 -8 10 0 18 -84 108 -155 166 -45 36
-122 87 -135 90 -3 0 -27 10 -53 22 -66 30 -155 55 -167 47 -5 -3 -10 -2 -10
3 0 5 -6 9 -14 9 -10 0 -13 -12 -12 -39z"/>
<path d="M7136 15308 c0 -1388 4 -2543 8 -2568 22 -131 79 -263 157 -367 47
-63 71 -87 144 -147 58 -47 224 -136 254 -136 10 0 21 -3 25 -7 3 -4 14 -8 24
-9 9 -2 31 -5 48 -9 21 -4 33 -1 36 7 7 24 1 5012 -6 5072 -28 223 -178 450
-381 577 -67 41 -176 87 -225 94 -14 2 -39 7 -55 10 l-30 7 1 -2524z"/>
<path d="M12537 11732 c-13 -3 -14 -8 -7 -28 6 -14 9 -28 8 -32 -8 -39 85
-242 147 -321 89 -112 242 -228 340 -257 6 -2 30 -10 55 -19 25 -9 68 -21 95
-27 32 -6 859 -11 2243 -13 l2192 -3 0 26 c0 48 -73 252 -92 260 -5 2 -8 10
-8 18 0 8 -3 14 -8 14 -4 0 -13 13 -20 28 -20 45 -148 170 -229 223 -78 50
-201 103 -267 113 -21 4 -43 9 -48 13 -10 6 -4369 11 -4401 5z"/>
</g>
</svg>
