<svg xmlns="http://www.w3.org/2000/svg" xmlns:xlink="http://www.w3.org/1999/xlink" viewBox="0 0 717.5102 593.8347"><defs><style>.cls-1{isolation:isolate;}.cls-2{fill:#d9d9db;}.cls-3{fill:#a6a6a6;mix-blend-mode:multiply;}.cls-4{fill:#b8b8b8;}.cls-5{fill:#c7c7c7;}.cls-6{fill:url(#名称未設定グラデーション_5);}.cls-7{fill:url(#名称未設定グラデーション_5-2);}.cls-8{fill:#1d3333;}.cls-9{fill:#1d1f21;}.cls-10{fill:#e05022;}.cls-11{fill:#2077fa;}.cls-12{fill:#c85d93;}.cls-13{fill:#f1da4e;}.cls-14{fill:#fff;}.cls-15{fill:#e0e0e0;}.cls-16{fill:#807d62;}.cls-17{fill:#733c80;}.cls-18{fill:#333;stroke:#59595c;stroke-miterlimit:10;stroke-width:0.5px;}</style><linearGradient id="名称未設定グラデーション_5" x1="358.7551" y1="8.9184" x2="358.7551" y2="14.7247" gradientUnits="userSpaceOnUse"><stop offset="0"/><stop offset="0.2885" stop-color="#030303"/><stop offset="0.4812" stop-color="#0b0b0c"/><stop offset="0.646" stop-color="#1a1a1b"/><stop offset="0.7949" stop-color="#2e2e30"/><stop offset="0.9321" stop-color="#49494b"/><stop offset="1" stop-color="#59595c"/></linearGradient><linearGradient id="名称未設定グラデーション_5-2" x1="358.4526" y1="10.2341" x2="358.4526" y2="13.7433" xlink:href="#名称未設定グラデーション_5"/></defs><g class="cls-1"><g id="Layer_2" data-name="Layer 2"><g id="Main_Container" data-name="Main Container"><g id="Desktop"><g id="Base"><path class="cls-2" d="M467.7745,591.3007v-2.722H249.7357v2.722s-.2331,2.534,7.7587,2.534H460.0157C468.0076,593.8347,467.7745,591.3007,467.7745,591.3007Z"/><path class="cls-2" d="M467.033,587.3047S447.9305,574.44,444.032,571.321s-5.36-3.6061-7.4071-12.4751c-2.6618-11.5343-6.8223-65.1247-6.8223-65.1247H287.7076s-4.1606,53.59-6.8224,65.1247c-2.0467,8.869-3.5086,9.3563-7.407,12.4751s-23.001,15.9837-23.001,15.9837-3.5086,2.534,4.6782,3.3137,103.6,0,103.6,0,95.413.78,103.6,0S467.033,587.3047,467.033,587.3047Z"/><path class="cls-2" d="M428.8779,494.7212c.5808,7.3762,4.2849,53.57,6.7727,64.35,1.9556,8.4745,3.486,9.6753,6.8392,12.3063.29.2277.5955.4672.9175.7248,3.8858,3.1086,22.2857,15.506,23.04,16.0135a1.3,1.3,0,0,1,.32.3625c-.1347.1517-.912.8027-4.5072,1.1451-2.3832.2269-12.6122.3419-30.403.3419-30.3405,0-72.67-.343-73.11-.3465-.4239.0035-42.7525.3465-73.0937.3465-17.7909,0-28.02-.115-30.4029-.3419-3.5948-.3424-4.3723-.9932-4.5071-1.145a1.2247,1.2247,0,0,1,.2927-.3438c.7814-.5263,19.1812-12.9237,23.0671-16.0323.322-.2576.6273-.4971.9175-.7248,3.3532-2.631,4.8836-3.8318,6.8392-12.3063,2.4877-10.78,6.1918-56.9734,6.7727-64.35H428.8779m.9247-1H287.7076s-4.1606,53.59-6.8224,65.1247c-2.0467,8.869-3.5086,9.3563-7.407,12.4751s-23.001,15.9837-23.001,15.9837-3.5086,2.534,4.6782,3.3137c2.7287.26,15.1509.3465,30.4977.3465,30.6964,0,73.1019-.3465,73.1019-.3465s42.4062.3465,73.102.3465c15.3508,0,27.7686-.0866,30.4978-.3465,8.1868-.78,4.6782-3.3137,4.6782-3.3137S447.9305,574.44,444.032,571.321s-5.36-3.6061-7.4071-12.4751c-2.6618-11.5343-6.8223-65.1247-6.8223-65.1247Z"/><path class="cls-3" d="M467.7745,591.3007v-2.722H249.7357v2.722s-.2331,2.534,7.7587,2.534H460.0157C468.0076,593.8347,467.7745,591.3007,467.7745,591.3007Z"/><path class="cls-4" d="M467.033,587.3047S447.9305,574.44,444.032,571.321s-5.36-3.6061-7.4071-12.4751c-2.6618-11.5343-6.8223-65.1247-6.8223-65.1247H287.7076s-4.1606,53.59-6.8224,65.1247c-2.0467,8.869-3.5086,9.3563-7.407,12.4751s-23.001,15.9837-23.001,15.9837-3.5086,2.534,4.6782,3.3137,103.6,0,103.6,0,95.413.78,103.6,0S467.033,587.3047,467.033,587.3047Z"/></g><path id="Bottom" class="cls-5" d="M0,476.1781a17.5431,17.5431,0,0,0,17.5431,17.5431h682.424A17.5431,17.5431,0,0,0,717.51,476.1781v-48.501H0Z"/><path id="Border" d="M699.9671,0H17.5431A17.5431,17.5431,0,0,0,0,17.5431v410.134H717.51V17.5431A17.5431,17.5431,0,0,0,699.9671,0Z"/><g id="Camera"><circle class="cls-6" cx="358.7551" cy="11.9559" r="2.7743"/><circle cx="358.7551" cy="11.9559" r="1.7225"/><circle class="cls-7" cx="358.4526" cy="11.9559" r="1.4199"/></g><g id="_YOUR_SCREEN_HERE_" data-name="[YOUR SCREEN HERE]"><rect id="Screen-BG" class="cls-8" x="28.7551" y="28.9173" width="659" height="371"/><g id="Window--Bottom"><rect x="54.7551" y="312.9173" width="606" height="73" rx="12"/></g><rect id="Window--Left" class="cls-9" x="54.7551" y="39.9173" width="299" height="257" rx="12"/><g id="Code"><path class="cls-10" d="M86.2038,82.4012V78.4129l18.24-12.062v5.1446L90.8884,80.3114v.1919l13.5556,8.8159v5.144Z"/><path class="cls-10" d="M112.7712,64.9593h5.6133V77.5487h10.7314V64.9593h5.6133V96.3446h-5.6133V82.44H118.3845V96.3446h-5.6133Z"/><path class="cls-10" d="M149.7585,69.6542H139.87V64.9593H165.23v4.6949h-9.8882v26.69h-5.583Z"/><path class="cls-10" d="M170.0524,64.9593h6.1827l3.729,12.2432,1.29,4.7012h.1919l1.2593-4.7012,3.76-12.2432h6.1826V96.3446h-4.9331V83.6825c0-3.3013.5507-9.8228.8134-12.8638h-.144l-2.0933,7.29-3.4555,9.9185h-3.1621l-3.43-9.9185-2.0357-7.29h-.1313c.3232,3.041.813,9.5625.813,12.8638V96.3446h-4.8365Z"/><path class="cls-10" d="M201.5114,64.9593h5.5523V91.65h14.7251v4.6944H201.5114Z"/><path class="cls-10" d="M229.4553,89.3192l13.5556-8.8159v-.1919l-13.5556-8.8159V66.3509l18.24,12.062v3.9883l-18.24,12.062Z"/><path class="cls-11" d="M86.2038,132.7347v-3.9883l18.24-12.062v5.1446l-13.5556,8.8159v.1919l13.5556,8.8159v5.144Z"/><path class="cls-11" d="M112.2048,131.0736c0-10.252,6.2392-16.3565,14.5361-16.3565a12.6155,12.6155,0,0,1,8.9932,3.9107l-3.1148,3.478a8.0222,8.0222,0,0,0-5.8784-2.5327c-5.2075,0-8.7915,4.3022-8.7915,11.334,0,7.1631,3.584,11.4907,8.9326,11.4907a8.3175,8.3175,0,0,0,6.334-3.1035l3.1148,3.3818a12.5506,12.5506,0,0,1-10.0093,4.5781C118.5451,147.2542,112.2048,141.4876,112.2048,131.0736Z"/><path class="cls-11" d="M140.96,142.6683l3.2461-3.8413a13.267,13.267,0,0,0,8.7583,3.5708c3.6508,0,5.5835-1.606,5.5835-3.7988,0-2.7964-2.149-3.5454-5.2115-4.8365l-4.3134-1.8754c-3.2964-1.2832-6.6983-3.72-6.6983-8.3238,0-4.9946,4.4966-8.8462,10.9024-8.8462a14.47,14.47,0,0,1,10.0493,3.9942l-2.8521,3.5434a11.124,11.124,0,0,0-7.4643-2.6816c-2.979,0-4.9868,1.3408-4.9868,3.6621,0,2.4424,2.5053,3.3355,5.352,4.4268l4.1172,1.792c3.9941,1.5361,6.8193,3.92,6.8193,8.4536,0,5.0981-4.2944,9.3466-11.63,9.3466A17.0277,17.0277,0,0,1,140.96,142.6683Z"/><path class="cls-11" d="M169.76,142.6683l3.2461-3.8413a13.267,13.267,0,0,0,8.7583,3.5708c3.6509,0,5.5835-1.606,5.5835-3.7988,0-2.7964-2.149-3.5454-5.2115-4.8365l-4.3134-1.8754c-3.2964-1.2832-6.6983-3.72-6.6983-8.3238,0-4.9946,4.4966-8.8462,10.9024-8.8462a14.47,14.47,0,0,1,10.0493,3.9942l-2.8521,3.5434a11.124,11.124,0,0,0-7.4643-2.6816c-2.979,0-4.9868,1.3408-4.9868,3.6621,0,2.4424,2.5053,3.3355,5.352,4.4268l4.1172,1.792c3.9941,1.5361,6.8193,3.92,6.8193,8.4536,0,5.0981-4.2944,9.3466-11.63,9.3466A17.0278,17.0278,0,0,1,169.76,142.6683Z"/><path class="cls-11" d="M200.6555,139.6527l13.5556-8.8159v-.1919l-13.5556-8.8159v-5.1446l18.24,12.062v3.9883l-18.24,12.062Z"/><path class="cls-12" d="M86.2038,183.0677v-3.9883l18.24-12.062v5.1446l-13.5556,8.8159v.1919l13.5556,8.8159v5.144Z"/><path class="cls-12" d="M112.16,193.0013l3.2461-3.8413a13.267,13.267,0,0,0,8.7583,3.5708c3.6508,0,5.5835-1.6059,5.5835-3.7988,0-2.7964-2.149-3.5454-5.2115-4.8364l-4.3134-1.8755c-3.2964-1.2832-6.6983-3.72-6.6983-8.3238,0-4.9946,4.4966-8.8462,10.9024-8.8462a14.47,14.47,0,0,1,10.0493,3.9942l-2.8521,3.5434a11.124,11.124,0,0,0-7.4643-2.6816c-2.979,0-4.9868,1.3408-4.9868,3.6621,0,2.4424,2.5053,3.3355,5.352,4.4268l4.1172,1.792c3.9941,1.5361,6.8193,3.92,6.8193,8.4536,0,5.0981-4.2944,9.3467-11.63,9.3467A17.0274,17.0274,0,0,1,112.16,193.0013Z"/><path class="cls-12" d="M141.531,190.6805c0-5.2851,4.65-7.9175,16.2934-8.7368-.1968-2.64-1.768-4.623-5.6113-4.623a16.45,16.45,0,0,0-7.7022,2.5024l-2.06-3.6748a21.6456,21.6456,0,0,1,10.7871-3.29c6.543,0,10.1387,3.6337,10.1387,10.2v13.9527h-4.563l-.4243-2.9214h-.1617c-2.4736,1.91-5.64,3.4976-8.7988,3.4976C144.8317,197.5873,141.531,194.7689,141.531,190.6805Zm16.2934-.312v-4.956c-8.47.5566-10.9126,2.2954-10.9126,4.8393,0,2.0762,1.8364,2.9736,4.1724,2.9736C153.46,193.2254,155.6472,192.1185,157.8244,190.3685Z"/><path class="cls-12" d="M169.9162,193.9388,172.34,190.4a17.379,17.379,0,0,0,9.8647,2.9917c3.2666,0,4.7993-1.2441,4.7993-2.8071,0-1.5473-1.0356-2.4077-6.5263-3.5454-6.2906-1.3184-9.0855-3.541-9.0855-7.1338,0-4.0967,3.7349-7.0473,10.3311-7.0473a18.4367,18.4367,0,0,1,9.8667,3.1171l-2.5542,3.4078a14.5322,14.5322,0,0,0-7.8072-2.36c-3.0556,0-4.3193,1.1792-4.3193,2.6206,0,1.6636,1.7344,2.2456,6.147,3.2012,7.5346,1.6626,9.4951,3.6709,9.4951,7.4121,0,4.0566-3.9077,7.3306-11.0737,7.3306A21.3264,21.3264,0,0,1,169.9162,193.9388Z"/><path class="cls-12" d="M198.716,193.9388l2.4234-3.5386a17.379,17.379,0,0,0,9.8647,2.9917c3.2666,0,4.7993-1.2441,4.7993-2.8071,0-1.5473-1.0356-2.4077-6.5263-3.5454-6.2906-1.3184-9.0855-3.541-9.0855-7.1338,0-4.0967,3.7349-7.0473,10.3311-7.0473a18.4367,18.4367,0,0,1,9.8667,3.1171l-2.5542,3.4078a14.5322,14.5322,0,0,0-7.8072-2.36c-3.0556,0-4.3193,1.1792-4.3193,2.6206,0,1.6636,1.7344,2.2456,6.147,3.2012,7.5346,1.6626,9.4951,3.6709,9.4951,7.4121,0,4.0566-3.9077,7.3306-11.0737,7.3306A21.3264,21.3264,0,0,1,198.716,193.9388Z"/><path class="cls-12" d="M229.4553,189.9857l13.5556-8.8159v-.1919l-13.5556-8.8159v-5.1446l18.24,12.062v3.9883l-18.24,12.062Z"/><path class="cls-13" d="M86.2038,233.4012v-3.9883l18.24-12.062v5.1446l-13.5556,8.8159v.1919l13.5556,8.8159v5.144Z"/><path class="cls-13" d="M112.6784,242.7235l3.3194-3.4351c1.8066,2.5025,4.1088,3.7759,6.3632,3.7759,3.8125,0,5.6348-1.8154,5.6348-6.542V220.6239H115.3186v-4.6948h18.2905v21.0527c0,5.9975-2.834,10.939-11.0816,10.939A11.6932,11.6932,0,0,1,112.6784,242.7235Z"/><path class="cls-13" d="M140.96,243.3348l3.2461-3.8413a13.267,13.267,0,0,0,8.7583,3.5708c3.6508,0,5.5835-1.606,5.5835-3.7988,0-2.7964-2.149-3.5454-5.2115-4.8364l-4.3134-1.8755c-3.2964-1.2832-6.6983-3.72-6.6983-8.3238,0-4.9946,4.4966-8.8462,10.9024-8.8462a14.47,14.47,0,0,1,10.0493,3.9942l-2.8521,3.5434A11.124,11.124,0,0,0,152.96,220.24c-2.979,0-4.9868,1.3408-4.9868,3.6621,0,2.4424,2.5053,3.3355,5.352,4.4268l4.1172,1.792c3.9941,1.5361,6.8193,3.92,6.8193,8.4536,0,5.0981-4.2944,9.3467-11.63,9.3467A17.0278,17.0278,0,0,1,140.96,243.3348Z"/><path class="cls-13" d="M171.8557,240.3192l13.5556-8.8159v-.1919l-13.5556-8.8159v-5.1446l18.24,12.062v3.9883l-18.24,12.062Z"/><path class="cls-14" d="M86.823,354.4916l13.5556-8.8165v-.1914L86.823,336.6673v-5.1435l18.2407,12.0615v3.9883L86.823,359.6361Z"/><path class="cls-14" d="M115.6223,354.4916l13.5556-8.8165v-.1914l-13.5556-8.8164v-5.1435l18.24,12.0615v3.9883l-18.24,12.0625Z"/><path class="cls-14" d="M141.83,345.9125c0-10.3174,6.0908-16.3565,14.2339-16.3565a12.0008,12.0008,0,0,1,8.9175,3.9111l-3.1148,3.4776a7.4636,7.4636,0,0,0-5.8027-2.5322c-4.9883,0-8.4414,4.3017-8.4414,11.3339,0,7.1631,3.0112,11.49,8.539,11.49a6.2817,6.2817,0,0,0,4.2085-1.3662v-6.7813h-5.3769v-4.5635h10.4428v13.8487a14.1024,14.1024,0,0,1-9.6025,3.7187C147.8772,362.0931,141.83,356.3265,141.83,345.9125Z"/><path class="cls-14" d="M182.5373,342.3373H172.3532V337.94H188.09v23.5771h-5.5527Zm-1.5312-12.4014a3.9491,3.9491,0,0,1,7.8872,0,3.9512,3.9512,0,0,1-7.8872,0Z"/><path class="cls-14" d="M206.2282,352.0384v-9.7011h-6.3076v-4.14l6.54-.2578.7216-7.3828h4.5987V337.94h10.72v4.3975h-10.72v9.6787c0,3.8945,1.4629,5.6494,5.4463,5.6494a14.6537,14.6537,0,0,0,5.1279-.95l1.0757,4.0381a22.9923,22.9923,0,0,1-7.5435,1.34C208.6828,362.0931,206.2282,358.0462,206.2282,352.0384Z"/></g><g id="Window--Right"><g id="Window_BG"><rect class="cls-14" x="362.0051" y="40.1673" width="298.5" height="256.5" rx="11.75"/><path d="M648.7551,40.4173a11.5131,11.5131,0,0,1,11.5,11.5v233a11.513,11.513,0,0,1-11.5,11.5h-275a11.513,11.513,0,0,1-11.5-11.5v-233a11.5131,11.5131,0,0,1,11.5-11.5h275m0-.5h-275a12.0353,12.0353,0,0,0-12,12v233a12.0353,12.0353,0,0,0,12,12h275a12.0353,12.0353,0,0,0,12-12v-233a12.0353,12.0353,0,0,0-12-12Z"/></g><g id="WR_left"><rect class="cls-15" x="368.7551" y="94.9173" width="142" height="131" rx="12"/></g><g id="WR_Right--upper"><rect class="cls-16" x="533.7551" y="94.9173" width="119" height="54" rx="12"/></g><g id="WR_Right--lower"><rect class="cls-16" x="533.7551" y="168.9173" width="119" height="57" rx="12"/></g><g id="WR_Footer"><rect class="cls-17" x="368.7551" y="236.9173" width="284" height="50" rx="12"/></g><g id="WR_Header"><rect class="cls-17" x="368.7551" y="46.9173" width="284" height="30" rx="12"/></g><path class="cls-18" d="M499.7551,112.4173h0Z"/><path class="cls-18" d="M499.7551,142.4173h0Z"/><path class="cls-18" d="M499.7551,157.4173h0Z"/><path class="cls-18" d="M499.7551,187.4173h0Z"/><path class="cls-18" d="M499.7551,202.4173h0Z"/><path class="cls-18" d="M499.7551,127.4173h0Z"/><path class="cls-18" d="M499.7551,172.4173h0Z"/></g></g></g></g></g></g></svg>