<?xml version="1.0" encoding="utf-8"?>
<!-- Generator: Adobe Illustrator 24.2.0, SVG Export Plug-In . SVG Version: 6.00 Build 0)  -->
<svg version="1.1" id="Layer_1" xmlns="http://www.w3.org/2000/svg" xmlns:xlink="http://www.w3.org/1999/xlink" x="0px" y="0px"
	 viewBox="0 0 591.6 595.8" style="enable-background:new 0 0 591.6 595.8;" xml:space="preserve">
<style type="text/css">
	.st0{fill:#6F5EF0;}
	.st1{clip-path:url(#SVGID_2_);}
	.st2{fill:#FDDAC3;}
	.st3{fill:#0D0E0D;}
	.st4{fill:#ECBEA6;}
	.st5{fill:#2D2D2D;}
	.st6{fill:#FFFFFF;}
	.st7{fill:#707773;}
	.st8{fill:#3A3737;}
	.st9{fill:#302F2F;}
	.st10{opacity:0.61;fill:#302F2F;enable-background:new    ;}
	.st11{fill:#CE7676;}
	.st12{fill:#E0B199;}
	.st13{fill:#C0927D;}
	.st14{fill:#EDEDED;}
</style>
<circle class="st0" cx="295.8" cy="307.3" r="250"/>
<g>
	<defs>
		<ellipse id="SVGID_1_" cx="295.8" cy="312.8" rx="250.7" ry="244.2"/>
	</defs>
	<clipPath id="SVGID_2_">
		<use xlink:href="#SVGID_1_"  style="overflow:visible;"/>
	</clipPath>
	<g class="st1">
		<path class="st2" d="M188.6,421.5h212.8c6.6,0,12,5.4,12,12v150.3c0,6.6-5.4,12-12,12H188.6c-6.6,0-12-5.4-12-12V433.5
			C176.6,426.9,182,421.5,188.6,421.5z"/>
		<path class="st3" d="M218.4,379.3h153.3c23.1,0,41.8,18.7,41.8,41.8l0,0c0,15-12.2,27.2-27.2,27.2H203.9
			c-15,0-27.2-12.2-27.2-27.2l0,0l0,0C176.6,398,195.3,379.3,218.4,379.3L218.4,379.3z"/>
		<path class="st3" d="M237.6,379.3h116.3c15.7,0,28.5,12.8,28.5,28.5v159.5c0,15.7-12.8,28.5-28.5,28.5H237.6
			c-15.7,0-28.5-12.8-28.5-28.5V407.8C209.2,392.1,221.9,379.3,237.6,379.3z"/>
		<path class="st2" d="M273.2,362h40.1c0.8,0,1.4,0.6,1.4,1.4v34.4c0,8.1-6.5,14.6-14.6,14.6h-13.7c-8.1,0-14.6-6.5-14.6-14.6
			c0,0,0,0,0,0v-34.4C271.8,362.7,272.5,362,273.2,362L273.2,362z"/>
		<path class="st4" d="M313.4,350.1h-40.1c-0.8,0-1.4,0.6-1.4,1.4v18.4c14.1,3.1,28.7,3.1,42.9,0v-18.4
			C314.8,350.7,314.2,350.1,313.4,350.1z"/>
		<path class="st2" d="M293.4,366c-41.6,0-75.4-48.6-75.4-90.1v-96h150.8v96C368.8,317.5,334.9,366,293.4,366z"/>
		<path class="st5" d="M287.4,126.2c8.7,1.5,21.7,11.9,29.7,13.9c4.2,1.1,9.9,4,13.8,5.6c3.8,1.6,7.6,3.4,11.2,5.5
			c2.7,1.6,5.4,3.3,7.9,5.2c1.7,1.3,3.3,2.6,4.9,3.9c0.9,0.8,1.8,1.6,2.7,2.4c1.8,1.7,3.4,3.5,5,5.3c9.5,11.2,15.1,24.7,15.1,39.3
			l-3.2,68.2c0,8.7-1.7,19.3-7.7,19.3H220c-6,0-6-8.5-6-17.1l-4.9-70.4c0-18.6,0.4-54.4,19-51.8c10.3,1.5-6.9,2.1-7.6-2.3
			C216.6,126.9,263.3,122.1,287.4,126.2z"/>
		<ellipse class="st2" cx="365.8" cy="245.2" rx="25.3" ry="27"/>
		<ellipse class="st2" cx="221" cy="245.2" rx="25.3" ry="27"/>
		<path class="st2" d="M293,352.9L293,352.9c-40,0-72.4-47.1-72.4-87.1V208c0-19.4,15.8-35.2,35.2-35.2l0,0h74.3
			c19.4,0,35.2,15.8,35.2,35.2v57.8C365.4,305.8,333,352.9,293,352.9z"/>
		<path class="st6" d="M311.4,242.9h40.1C353.8,216.1,307.5,213.7,311.4,242.9z"/>
		<path class="st6" d="M236.2,242.2h40.1C278.6,215.4,232.3,212.9,236.2,242.2z"/>
		<path class="st7" d="M368.8,179.9"/>
		<path class="st8" d="M232.7,146.4"/>
		<polygon class="st5" points="221,245.2 215.3,245.2 213.1,228.5 221,214.6 		"/>
		<polygon class="st5" points="365.8,212.7 373,212.7 375.6,231.5 370.7,247.1 365.8,247.1 		"/>
		<polyline class="st5" points="369.8,212.7 377.2,217.3 375.4,231.5 373.7,231.5 		"/>
		<path class="st5" d="M217.1,214.6h-4.7l-2.8-0.4c0,0,0.3,12.8,0.9,14.1s4.7,16.9,4.7,16.9l5.3-28.2"/>
		<ellipse transform="matrix(0.1602 -0.9871 0.9871 0.1602 -14.4294 447.8119)" class="st9" cx="256" cy="232.4" rx="10" ry="10"/>
		<circle class="st9" cx="330.1" cy="232.4" r="10"/>
		<path class="st9" d="M351.2,221.2c-5.8-3.4-31.6-5.6-33.6-1C324.3,204.5,350.3,209.6,351.2,221.2z"/>
		<path class="st9" d="M236.2,221.1c5.8-3.4,31.7-5.3,33.6-0.8C263.2,204.6,237.2,209.4,236.2,221.1z"/>
		<path class="st2" d="M354.2,308.5c-7.2,16.4-28.7,41-60,40.2c-28.7-0.8-49.5-22.5-60-40.2c-6.1-10.3-12.8-35.6-0.3-43
			c10.6-6.3,45.1,2.8,60.3,2.8c15.9,0,45.1-5.7,57,1.3C364.1,277.2,358.8,297.9,354.2,308.5z"/>
		<path class="st2" d="M354.2,308.5c-7.2,16.4-28.7,41-60,40.2c-28.7-0.8-49.5-22.5-60-40.2c-1.1-1.8-0.1-5.2-1.1-7.8
			c-1.3-3.4-4.6-6.1-5.4-10.1c-0.7-3.4-1-6.8-0.9-10.3c0.2-6.4,2.2-12,7-14.8c10.6-6.3,45.1,2.8,60.3,2.8c15.9,0,45.1-5.7,57,1.3
			C364.1,277.2,358.8,297.9,354.2,308.5z"/>
		<path class="st2" d="M343.5,283.6"/>
		<path class="st9" d="M276.2,299.8"/>
		<path class="st10" d="M290.4,285.3"/>
		<path class="st10" d="M335.2,299.8"/>
		<path class="st11" d="M293.5,317.7c-9.1-1-21.4-3.2-30.6-0.5c9.4,5.9,20.2,9.4,31.3,10L293.5,317.7z"/>
		<path class="st11" d="M293.2,317.7c9.2-0.9,22.2-3.3,31.4-0.5c-8.9,5.7-22,9.7-32.2,10L293.2,317.7z"/>
		<polygon class="st2" points="226.8,279.8 226.8,273 226.8,269.4 231,269.4 231,273 231,279.8 		"/>
		<polygon class="st2" points="359.3,284.1 359.3,267.8 352.1,267.8 352.1,284.8 		"/>
		<path class="st12" d="M288.5,268.8h11.4c1.9,0,3.4,1.5,3.4,3.4l0,0c0,1.9-1.5,3.4-3.4,3.4h-11.4c-1.9,0-3.4-1.5-3.4-3.4l0,0
			C285.1,270.3,286.6,268.8,288.5,268.8z"/>
		<path class="st12" d="M258.3,308.4c0.3,12,16.2,21.7,35.8,21.7s35.5-9.7,35.8-21.7H258.3z"/>
		<path class="st13" d="M271.7,325.3c14.3,6.5,30.6,6.5,44.9,0c-4.7-7.9-13.2-13.3-22.6-13.2C284.8,312.1,276.4,317.5,271.7,325.3z"
			/>
		<rect x="258.3" y="304.6" class="st14" width="71.7" height="3.8"/>
	</g>
</g>
<path class="st3" d="M207.8,489.3h-12.9c-10,0-18.2-5.4-18.2-12v-57.8c0-6.6,8.2-12,18.2-12h12.9c10,0,18.2,5.4,18.2,12v57.8
	C226,483.9,217.8,489.3,207.8,489.3z"/>
<path class="st3" d="M398.4,489.4h-10.9c-8.4,0-15.4-5.4-15.4-12v-59.2c0-6.6,6.9-12,15.4-12h10.9c8.4,0,15.4,5.4,15.4,12v59.2
	C413.8,484,406.9,489.4,398.4,489.4z"/>
</svg>
